<svg width="77" height="102" xmlns="http://www.w3.org/2000/svg">
  <g fill="none" fill-rule="evenodd">
    <path fill="#FFF" d="M74.6085948 26.5165367L38.3227197 50.5578225 2.0368447 26.5165367l36.285875-24.04128583"/>
    <path stroke="#315D79" stroke-width="3" stroke-linejoin="bevel" d="M74.6085948 26.5165367L38.3227197 50.5578225 2.0368447 26.5165367l36.285875-24.04128583zM56.9688526 38.6155032L20.6829775 14.5742174"/>
    <path fill="#E2E3E4" d="M2.03690684 26.5258638v50.6719468l36.28587506 23.2389007v-50.085137"/>
    <path stroke="#315D79" stroke-width="3" stroke-linejoin="bevel" d="M2.03690684 26.5258638v50.6719468l36.28587506 23.2389007v-50.085137z"/>
    <path fill="#FFF" d="M74.6085948 26.5258638v50.6719468l-36.2858751 23.2389007v-50.085137"/>
    <path stroke="#315D79" stroke-width="3" stroke-linejoin="bevel" d="M74.6085951 26.525864v50.6719467l-36.285875 23.2389007v-50.085137z"/>
    <path d="M2.96287103 26.172481l18.80829147-1.7054544L56.1824859 2.4289239l-17.859828-.15998285L2.8161886 25.7938343c-.18583917.1235389-.07396274.4113845.14668243.3786467" fill="#FFF"/>
    <path d="M2.96287103 26.172481l18.80829147-1.7054544L56.1824859 2.4289239l-17.859828-.15998285L2.8161886 25.7938343c-.18583917.1235389-.07396274.4113845.14668243.3786467z" stroke="#315D79" stroke-width="3"/>
    <path fill="#FFF" d="M74.6085951 26.3102268L61.1467536 6.19068313 26.7435102 30.2319689l11.5792099 20.1195437"/>
    <path stroke="#315D79" stroke-width="3" d="M74.6085951 26.3102268L61.1467536 6.19068313 26.7435102 30.2319689l11.5792099 20.1195437z"/>
  </g>
</svg>
