<svg width="114" height="112" xmlns="http://www.w3.org/2000/svg">
  <g fill="none" fill-rule="evenodd">
    <path fill="#41BFB3" d="M90.8874745 46.5487789L57.3282837 68.7938767 23.7690929 46.5487789l33.5591908-22.2450978"/>
    <path fill="#FFF" d="M90.8874745 41.404475l20.5082345-18.5374862L78.3429442 2.47598257 57.3282837 19.1593772"/>
    <path stroke="#315D79" stroke-width="3" d="M90.8874745 41.404475l20.5082345-18.5374862L78.3429442 2.47598257 57.3282837 19.1593772z"/>
    <path fill="#FFF" d="M23.7691504 41.404475L3.26091565 22.8669888 35.0864171 2.47598257 57.3283412 19.1593772"/>
    <path stroke="#315D79" stroke-width="3" d="M23.7691504 41.404475L3.26091565 22.8669888 35.0864171 2.47598257 57.3283412 19.1593772z"/>
    <path fill="#E2E3E4" d="M23.7691504 41.6040013V88.490113l33.5591908 21.502661V63.64963"/>
    <path stroke="#315D79" stroke-width="3" stroke-linejoin="bevel" d="M23.7691504 41.6040013V88.490113l33.5591908 21.502661V63.64963z"/>
    <path fill="#FFF" d="M57.288218 63.6494013L38.6843974 78.479276 6.8657939 56.2341782l16.9034714-14.8298746"/>
    <path stroke="#315D79" stroke-width="3" d="M57.288218 63.6494013L38.6843974 78.479276 6.8657939 56.2341782l16.9034714-14.8298746z"/>
    <path fill="#FFF" d="M90.8874745 41.6040013V88.490113l-33.5591908 21.502661V63.64963"/>
    <path stroke="#315D79" stroke-width="3" stroke-linejoin="bevel" d="M90.8874745 41.6040013V88.490113l-33.5591908 21.502661V63.64963z"/>
    <path fill="#FFF" d="M90.8874745 41.404475l16.9034715 14.8298747-31.8186036 22.2450978-18.6440587-14.8298747"/>
    <path stroke="#315D79" stroke-width="3" d="M90.8874745 41.404475l16.9034715 14.8298747-31.8186036 22.2450978-18.6440587-14.8298747z"/>
  </g>
</svg>
