<svg width="158" height="214" viewBox="0 0 158 214" version="1.1" xmlns="http://www.w3.org/2000/svg" xmlns:xlink="http://www.w3.org/1999/xlink"><title>caixa animada{:linearEase;5,870,2777,189,191,360,1;}</title><desc>Created with Sketch.</desc><g id="Page-1" stroke="none" stroke-width="1" fill="none" fill-rule="evenodd"><g id="Artboard" transform="translate(-48.000000, -41.000000)"><g id="caixa-animada{:linearEase;5,870,2777,189,191,360,1;}" transform="translate(2.000000, 3.000000)"><g id="2" transform="translate(47.283842, 39.560247)"><polygon id="Fill-5" fill="#E2E3E4" points="0.656720031 52.5897096 0.656720031 160.993256 77.3366643 210.708719 77.3366643 103.560546"/><polygon id="Stroke-6" stroke="#315D79" stroke-width="3" stroke-linejoin="bevel" points="0.656720031 52.5897096 0.656720031 160.993256 77.3366643 210.708719 77.3366643 103.560546"/><polygon id="Fill-8" fill="#FFF" points="154.016477 52.5897096 154.016477 160.993256 77.336533 210.708719 77.336533 103.560546"/><polygon id="Stroke-9" stroke="#315D79" stroke-width="3" stroke-linejoin="bevel" points="154.016477 52.5897096 154.016477 160.993256 77.336533 210.708719 77.336533 103.560546"/><polygon id="Fill-1" fill="#FFF" points="154.016477 52.0279626 77.336533 103.459984 0.656588687 52.0279626 77.336533 0.595941211"/><polygon id="Stroke-2" stroke="#315D79" stroke-width="3" stroke-linejoin="bevel" points="154.016477 52.0279626 77.336533 103.459984 0.656588687 52.0279626 77.336533 0.595941211"/><path d="M116.739866,77.9115328 L40.0599219,26.4795113" id="Stroke-4" stroke="#315D79" stroke-width="3" stroke-linejoin="bevel"/><path d="M2.61348304,51.2919169 L42.3594928,47.643403 L115.078102,0.496832719 L77.3364017,0.154578061 L2.30351118,50.4818702 C1.9107926,50.7461595 2.14721181,51.3619536 2.61348304,51.2919169" id="Fill-11" fill="#FFF"/><path d="M2.61348304,51.2919169 L42.3594928,47.643403 L115.078102,0.496832719 L77.3364017,0.154578061 L2.30351118,50.4818702 C1.9107926,50.7461595 2.14721181,51.3619536 2.61348304,51.2919169 Z" id="Stroke-13" stroke="#315D79" stroke-width="3"/><polygon id="Fill-15" fill="#FFF" points="154.016477 51.5865995 125.568679 8.54444225 52.8671446 59.9764637 77.336533 103.018621"/><polygon id="Stroke-17" stroke="#315D79" stroke-width="3" points="154.016477 51.5865995 125.568679 8.54444225 52.8671446 59.9764637 77.336533 103.018621"/></g></g></g></g></svg>