<svg width="169" height="255" viewBox="0 0 169 255" version="1.1" xmlns="http://www.w3.org/2000/svg" xmlns:xlink="http://www.w3.org/1999/xlink"><title>caixa animada{:linearEase;5,870,2777,189,191,360,1;}</title><desc>Created with Sketch.</desc><g id="Page-1" stroke="none" stroke-width="1" fill="none" fill-rule="evenodd"><g id="Artboard" transform="translate(-48.000000, 0.000000)"><g id="caixa-animada{:linearEase;5,870,2777,189,191,360,1;}" transform="translate(2.000000, 3.000000)"><g id="3" transform="translate(47.283842, 0.000000)"><polygon id="Fill-1" fill="#FFF" points="154.016477 91.8934641 77.336533 143.325485 0.656588687 91.8934641 77.336533 40.4614426"/><polygon id="Stroke-2" stroke="#315D79" stroke-width="3" stroke-linejoin="bevel" points="154.016477 91.8934641 77.336533 143.325485 0.656588687 91.8934641 77.336533 40.4614426"/><path d="M116.739866,117.777034 L40.0599219,66.3450128" id="Stroke-4" stroke="#315D79" stroke-width="3" stroke-linejoin="bevel"/><polygon id="Fill-5" fill="#E2E3E4" points="0.656720031 91.9134179 0.656720031 200.316965 77.3366643 250.032427 77.3366643 142.884254"/><polygon id="Stroke-6" stroke="#315D79" stroke-width="3" stroke-linejoin="bevel" points="0.656720031 91.9134179 0.656720031 200.316965 77.3366643 250.032427 77.3366643 142.884254"/><polygon id="Fill-8" fill="#FFF" points="154.016477 91.9134179 154.016477 200.316965 77.336533 250.032427 77.336533 142.884254"/><g id="Group-19" transform="translate(1.313440, 0.260492)"><polygon id="Stroke-9" stroke="#315D79" stroke-width="3" stroke-linejoin="bevel" points="152.703037 91.6529255 152.703037 200.056472 76.0230929 249.771935 76.0230929 142.623762"/><path d="M1.30004297,90.896926 L1.20416185,47.1636522 L73.9240844,0.0184033695 L76.0229616,39.7595871 L0.990071119,90.0868792 C0.597352541,90.3511685 0.833771752,90.9669626 1.30004297,90.896926" id="Fill-11" fill="#FFF"/><path d="M1.30004297,90.896926 L1.20416185,47.1636522 L73.9240844,0.0184033695 L76.0229616,39.7595871 L0.990071119,90.0868792 C0.597352541,90.3511685 0.833771752,90.9669626 1.30004297,90.896926 Z" id="Stroke-13" stroke="#315D79" stroke-width="3"/><path d="M152.703037,91.1916085 L163.633485,48.1494513 L90.9306377,99.5814727 L76.130795,142.31309 C76.0966456,142.412199 76.208288,142.499414 76.294975,142.44127 L152.703037,91.1916085 Z" id="Fill-15" fill="#FFF"/><path d="M152.703037,91.1916085 L163.633485,48.1494513 L90.9306377,99.5814727 L76.130795,142.31309 C76.0966456,142.412199 76.208288,142.499414 76.294975,142.44127 L152.703037,91.1916085 Z" id="Stroke-17" stroke="#315D79" stroke-width="3"/></g></g></g></g></g></svg>