<svg width="108" height="120" xmlns="http://www.w3.org/2000/svg">
  <g fill="none" fill-rule="evenodd">
    <path fill="#41BFB3" d="M84.864046 49.7432815L48.5781709 73.7845673l-36.285875-24.0412858 36.285875-24.0412858"/>
    <path fill="#E2E3E4" d="M12.2922959 44.3992362v50.6719467l36.285875 23.2389011V68.2249466"/>
    <path stroke="#315D79" stroke-width="3" stroke-linejoin="bevel" d="M12.2922959 44.3992362v50.6719467l36.285875 23.2389011V68.2249466z"/>
    <path fill="#FFF" d="M84.864046 44.3992362v50.6719467L48.5781709 118.310084V68.2249466"/>
    <path stroke="#315D79" stroke-width="3" stroke-linejoin="bevel" d="M84.864046 44.3992367v50.6719467L48.5781709 118.310084V68.2249471z"/>
    <path d="M13.2182598 44.0458537L2.39980955 24.7361074 36.8117545 2.6980047l11.7662921 17.444309L13.0715773 43.667207c-.1858391.1235389-.0739627.4113845.1466825.3786467" fill="#FFF"/>
    <path d="M13.2182598 44.0458537L2.39980955 24.7361074 36.8117545 2.6980047l11.7662921 17.444309L13.0715773 43.667207c-.1858391.1235389-.0739627.4113845.1466825.3786467z" stroke="#315D79" stroke-width="3"/>
    <path d="M84.3919275 44.2302355l-18.3881334 1.8160217-35.7389236-22.037485 18.3135491-3.8661496 35.8905783 23.7793833c.1330086.0877126.0814212.2927872-.0770704.3082296" fill="#FFF"/>
    <path d="M84.3919275 44.2302355l-18.3881334 1.8160217-35.7389236-22.037485 18.3135491-3.8661496 35.8905783 23.7793833c.1330086.0877126.0814212.2927872-.0770704.3082296z" stroke="#315D79" stroke-width="3"/>
    <path d="M48.5348499 68.2247L61.667899 51.2090709 27.264034 27.1677851 12.8338399 43.5681905c-.2871495.3261427-.2200236.828946.1429532 1.0692291L48.5348499 68.2247z" fill="#FFF"/>
    <path d="M48.5348499 68.2247L61.667899 51.2090709 27.264034 27.1677851 12.8338399 43.5681905c-.2871495.3261427-.2200236.828946.1429532 1.0692291L48.5348499 68.2247z" stroke="#315D79" stroke-width="3"/>
    <path d="M84.864046 44.1835995l18.535437 3.7160499-34.4038647 24.0406681-20.3664814-3.8605904c-.01616.0463271.0366706.0870949.0776919.0599164l36.1572172-23.956044z" fill="#FFF"/>
    <path d="M84.864046 44.1835995l18.535437 3.7160499-34.4038647 24.0406681-20.3664814-3.8605904c-.01616.0463271.0366706.0870949.0776919.0599164l36.1572172-23.956044z" stroke="#315D79" stroke-width="3"/>
  </g>
</svg>
