<?xml version="1.0" encoding="UTF-8"?>
<svg width="157px" height="213px" viewBox="0 0 157 213" version="1.1" xmlns="http://www.w3.org/2000/svg" xmlns:xlink="http://www.w3.org/1999/xlink">
    <!-- Generator: Sketch 46.2 (44496) - http://www.bohemiancoding.com/sketch -->
    <title>caixa animada{:linearEase;5,870,2777,189,191,360,1;}</title>
    <desc>Created with Sketch.</desc>
    <defs></defs>
    <g id="Page-1" stroke="none" stroke-width="1" fill="none" fill-rule="evenodd">
        <g id="Artboard" transform="translate(-48.000000, -42.000000)">
            <g id="caixa-animada{:linearEase;5,870,2777,189,191,360,1;}" transform="translate(2.000000, 3.000000)">
                <g id="1" transform="translate(47.283842, 40.370527)">
                    <polygon id="Fill-1" fill="#FFFFFF" points="154.016477 51.7594759 77.336533 103.191497 0.656588687 51.7594759 77.336533 0.327454457"></polygon>
                    <polygon id="Stroke-2" stroke="#315D79" stroke-width="3" stroke-linejoin="bevel" points="154.016477 51.7594759 77.336533 103.191497 0.656588687 51.7594759 77.336533 0.327454457"></polygon>
                    <path d="M118.115826,26.2115532 L41.4358817,77.6435746" id="Stroke-4" stroke="#315D79" stroke-width="3" stroke-linejoin="bevel"></path>
                    <polygon id="Fill-5" fill="#E2E3E4" points="0.656720031 51.7794297 0.656720031 160.182977 77.3366643 209.898439 77.3366643 102.750266"></polygon>
                    <polygon id="Stroke-6" stroke="#315D79" stroke-width="3" stroke-linejoin="bevel" points="0.656720031 51.7794297 0.656720031 160.182977 77.3366643 209.898439 77.3366643 102.750266"></polygon>
                    <polygon id="Fill-8" fill="#FFFFFF" points="154.016477 51.7794297 154.016477 160.182977 77.336533 209.898439 77.336533 102.750266"></polygon>
                    <polygon id="Stroke-9" stroke="#315D79" stroke-width="3" stroke-linejoin="bevel" points="154.016477 51.7794297 154.016477 160.182977 77.336533 209.898439 77.336533 102.750266"></polygon>
                </g>
            </g>
        </g>
    </g>
</svg>