<svg width="83" height="121" xmlns="http://www.w3.org/2000/svg">
  <g fill="none" fill-rule="evenodd">
    <path fill="#FFF" d="M74.6085948 45.6592237L38.3227197 69.7005095 2.0368447 45.6592237l36.285875-24.0412858"/>
    <path stroke="#315D79" stroke-width="3" stroke-linejoin="bevel" d="M74.6085948 45.6592237L38.3227197 69.7005095 2.0368447 45.6592237l36.285875-24.0412858zM56.9688526 57.7581902L20.6829775 33.7169044"/>
    <path fill="#E2E3E4" d="M2.03690684 45.6685509v50.6719467L38.3227819 119.579398V69.4942613"/>
    <path stroke="#315D79" stroke-width="3" stroke-linejoin="bevel" d="M2.03690684 45.6685509v50.6719467L38.3227819 119.579398V69.4942613z"/>
    <path fill="#FFF" d="M74.6085948 45.6685509v50.6719467L38.3227197 119.579398V69.4942613"/>
    <path stroke="#315D79" stroke-width="3" stroke-linejoin="bevel" d="M74.6085951 45.6685506v50.6719467l-36.285875 23.2389007V69.494261z"/>
    <path d="M2.96287103 45.3151676l-.0453721-20.4425979L37.3294439 2.83508466l.993214 18.57654294L2.8161886 44.9365209c-.18583917.1235389-.07396274.4113845.14668243.3786467" fill="#FFF"/>
    <path d="M2.96287103 45.3151676l-.0453721-20.4425979L37.3294439 2.83508466l.993214 18.57654294L2.8161886 44.9365209c-.18583917.1235389-.07396274.4113845.14668243.3786467z" stroke="#315D79" stroke-width="3"/>
    <path d="M74.6085951 45.4529134l5.17242-20.1195437-34.403865 24.0412858L38.373686 69.349041c-.0161599.0463271.0366706.087095.0776919.0599164l36.1572172-23.956044z" fill="#FFF"/>
    <path d="M74.6085951 45.4529134l5.17242-20.1195437-34.403865 24.0412858L38.373686 69.349041c-.0161599.0463271.0366706.087095.0776919.0599164l36.1572172-23.956044z" stroke="#315D79" stroke-width="3"/>
  </g>
</svg>
