<?xml version="1.0" encoding="UTF-8"?>
<svg width="220px" height="251px" viewBox="0 0 220 251" version="1.1" xmlns="http://www.w3.org/2000/svg" xmlns:xlink="http://www.w3.org/1999/xlink">
    <!-- Generator: Sketch 46.2 (44496) - http://www.bohemiancoding.com/sketch -->
    <title>caixa animada{:linearEase;5,870,2777,189,191,360,1;}</title>
    <desc>Created with Sketch.</desc>
    <defs></defs>
    <g id="Page-1" stroke="none" stroke-width="1" fill="none" fill-rule="evenodd">
        <g id="Artboard" transform="translate(-27.000000, -4.000000)">
            <g id="caixa-animada{:linearEase;5,870,2777,189,191,360,1;}" transform="translate(2.000000, 3.000000)">
                <g id="4" transform="translate(27.283842, 2.370527)">
                    <polygon id="Stroke-2" stroke="#315D79" stroke-width="3" stroke-linejoin="bevel" points="174.016477 89.7594759 97.336533 141.191497 20.6565887 89.7594759 97.336533 38.3274545"></polygon>
                    <polygon id="Fill-1" fill="#41BFB3" points="173.531687 101.356094 96.8517423 152.788116 20.171798 101.356094 96.8517423 49.924073"></polygon>
                    <polygon id="Fill-5" fill="#E2E3E4" points="20.65672 89.7794297 20.65672 198.182977 97.3366643 247.898439 97.3366643 140.750266"></polygon>
                    <polygon id="Stroke-6" stroke="#315D79" stroke-width="3" stroke-linejoin="bevel" points="20.65672 89.7794297 20.65672 198.182977 97.3366643 247.898439 97.3366643 140.750266"></polygon>
                    <polygon id="Fill-8" fill="#FFFFFF" points="174.016477 89.7794297 174.016477 198.182977 97.336533 247.898439 97.336533 140.750266"></polygon>
                    <polygon id="Stroke-9" stroke="#315D79" stroke-width="3" stroke-linejoin="bevel" points="174.016477 89.7794297 174.016477 198.182977 97.336533 247.898439 97.336533 140.750266"></polygon>
                    <path d="M23.1531756,89.2107405 L0.291437823,47.9009997 L73.0113603,0.754429474 L97.8760942,38.0734017 L22.8432037,88.4006938 C22.4504851,88.6649831 22.6869043,89.2807772 23.1531756,89.2107405" id="Fill-8" fill="#FFFFFF"></path>
                    <path d="M23.1531756,89.2107405 L0.291437823,47.9009997 L73.0113603,0.754429474 L97.8760942,38.0734017 L22.8432037,88.4006938 C22.4504851,88.6649831 22.6869043,89.2807772 23.1531756,89.2107405 Z" id="Stroke-10" stroke="#315D79" stroke-width="3"></path>
                    <path d="M173.558612,89.6051923 L134.700488,93.4902452 L59.1763708,46.3449964 L97.8768822,38.0740624 L173.721479,88.9457905 C174.002555,89.1334359 173.893539,89.5721561 173.558612,89.6051923" id="Fill-12" fill="#FFFFFF"></path>
                    <path d="M173.558612,89.6051923 L134.700488,93.4902452 L59.1763708,46.3449964 L97.8768822,38.0740624 L173.721479,88.9457905 C174.002555,89.1334359 173.893539,89.5721561 173.558612,89.6051923 Z" id="Stroke-14" stroke="#315D79" stroke-width="3"></path>
                    <path d="M97.7848101,140.937048 L125.537799,104.53516 L52.8349508,53.1031384 L22.3408129,88.1888659 C21.7340036,88.8865897 21.8758551,89.9622472 22.6429041,90.4762899 L97.7848101,140.937048 Z" id="Fill-16" fill="#FFFFFF"></path>
                    <path d="M97.7848101,140.937048 L125.537799,104.53516 L52.8349508,53.1031384 L22.3408129,88.1888659 C21.7340036,88.8865897 21.8758551,89.9622472 22.6429041,90.4762899 L97.7848101,140.937048 Z" id="Stroke-18" stroke="#315D79" stroke-width="3"></path>
                    <path d="M174.556301,89.5054231 L213.725711,97.4552456 L141.022863,148.885946 L97.984059,140.626905 C97.9499095,140.726013 98.0615519,140.813229 98.148239,140.755085 L174.556301,89.5054231 Z" id="Fill-20" fill="#FFFFFF"></path>
                    <path d="M174.556301,89.5054231 L213.725711,97.4552456 L141.022863,148.885946 L97.984059,140.626905 C97.9499095,140.726013 98.0615519,140.813229 98.148239,140.755085 L174.556301,89.5054231 Z" id="Stroke-22" stroke="#315D79" stroke-width="3"></path>
                </g>
            </g>
        </g>
    </g>
</svg>