<svg width="82" height="77" viewBox="0 0 82 77" version="1.1" xmlns="http://www.w3.org/2000/svg" xmlns:xlink="http://www.w3.org/1999/xlink"><title>icone</title><desc>Created with Sketch.</desc><g id="landing-page" stroke="none" stroke-width="1" fill="none" fill-rule="evenodd" stroke-linecap="round" stroke-linejoin="round"><g id="1440-1024-px/landing-" transform="translate(-678.000000, -6540.000000)" stroke="#45D4C3" stroke-width="2"><g id="ATUACAO" transform="translate(-1176.000000, 5976.000000)"><g id="empresas" transform="translate(1761.000000, 533.000000)"><g id="icone" transform="translate(94.000000, 32.000000)"><path d="M18.5330189,14.6106132 L24.7488208,14.6106132 L24.7488208,6.60943396 L18.5330189,6.60943396 L18.5330189,14.6106132 Z M18.5330189,29.9832547 L24.7488208,29.9832547 L24.7488208,21.9820755 L18.5330189,21.9820755 L18.5330189,29.9832547 Z M18.5330189,45.354717 L24.7488208,45.354717 L24.7488208,37.3535377 L18.5330189,37.3535377 L18.5330189,45.354717 Z M18.5330189,60.7273585 L24.7488208,60.7273585 L24.7488208,52.7261792 L18.5330189,52.7261792 L18.5330189,60.7273585 Z M33.9044811,14.6106132 L40.120283,14.6106132 L40.120283,6.60943396 L33.9044811,6.60943396 L33.9044811,14.6106132 Z M47.5106132,22.403066 L47.5106132,-0.000235849057 L11.1415094,-0.000235849057 L11.1415094,73.9007075" id="Stroke-1"/><path d="M55.0471698,38.9679245 L61.2629717,38.9679245 L61.2629717,32.3959906 L55.0471698,32.3959906 L55.0471698,38.9679245 Z M39.6757075,38.9679245 L45.8915094,38.9679245 L45.8915094,32.3959906 L39.6757075,32.3959906 L39.6757075,38.9679245 Z M55.0471698,51.35 L61.2629717,51.35 L61.2629717,44.778066 L55.0471698,44.778066 L55.0471698,51.35 Z M39.6757075,51.35 L45.8915094,51.35 L45.8915094,44.778066 L39.6757075,44.778066 L39.6757075,51.35 Z M39.6757075,63.975 L45.8915094,63.975 L45.8915094,57.403066 L39.6757075,57.403066 L39.6757075,63.975 Z M55.0471698,73.9007075 L55.0471698,59.3794811 L61.2629717,59.3794811 L61.2629717,73.9007075 L55.0471698,73.9007075 Z M68.6533019,73.9007075 L68.6533019,22.403066 L46.2653302,22.403066 L32.2841981,22.403066 L32.2841981,61.9714623 L32.2841981,73.9007075 L68.6533019,73.9007075 Z" id="Stroke-3"/><path d="M0,74.2591981 L79.7959906,74.2591981" id="Stroke-4"/></g></g></g></g></g></svg>