<svg width="50" height="47" viewBox="0 0 50 47" version="1.1" xmlns="http://www.w3.org/2000/svg" xmlns:xlink="http://www.w3.org/1999/xlink"><title>icone</title><desc>Created with Sketch.</desc><g id="soluções" stroke="none" stroke-width="1" fill="none" fill-rule="evenodd" stroke-linecap="round" stroke-linejoin="round"><g id="1440-1024/servicos/2" transform="translate(-206.000000, -138.000000)" stroke-width="2" stroke="#3DC5B4"><g id="EMPRESAS" transform="translate(207.000000, 139.000000)"><g id="icone"><path d="M11.0503125,8.71157813 L14.7564844,8.71157813 L14.7564844,3.940875 L11.0503125,3.940875 L11.0503125,8.71157813 Z M11.0503125,17.8775156 L14.7564844,17.8775156 L14.7564844,13.1068125 L11.0503125,13.1068125 L11.0503125,17.8775156 Z M11.0503125,27.04275 L14.7564844,27.04275 L14.7564844,22.2720469 L11.0503125,22.2720469 L11.0503125,27.04275 Z M11.0503125,36.2086875 L14.7564844,36.2086875 L14.7564844,31.4379844 L11.0503125,31.4379844 L11.0503125,36.2086875 Z M20.2155469,8.71157813 L23.9217188,8.71157813 L23.9217188,3.940875 L20.2155469,3.940875 L20.2155469,8.71157813 Z M28.3282031,13.3578281 L28.3282031,-0.000140625 L6.643125,-0.000140625 L6.643125,44.0632969" id="Stroke-1"/><path d="M32.821875,23.234625 L36.5280469,23.234625 L36.5280469,19.3161094 L32.821875,19.3161094 L32.821875,23.234625 Z M23.6566406,23.234625 L27.3628125,23.234625 L27.3628125,19.3161094 L23.6566406,19.3161094 L23.6566406,23.234625 Z M32.821875,30.6174375 L36.5280469,30.6174375 L36.5280469,26.6989219 L32.821875,26.6989219 L32.821875,30.6174375 Z M23.6566406,30.6174375 L27.3628125,30.6174375 L27.3628125,26.6989219 L23.6566406,26.6989219 L23.6566406,30.6174375 Z M23.6566406,38.1450938 L27.3628125,38.1450938 L27.3628125,34.2265781 L23.6566406,34.2265781 L23.6566406,38.1450938 Z M32.821875,44.0632969 L32.821875,35.4050156 L36.5280469,35.4050156 L36.5280469,44.0632969 L32.821875,44.0632969 Z M40.9345312,44.0632969 L40.9345312,13.3578281 L27.5857031,13.3578281 L19.2494531,13.3578281 L19.2494531,36.9504844 L19.2494531,44.0632969 L40.9345312,44.0632969 Z" id="Stroke-3"/><path d="M0,44.2770469 L47.5783594,44.2770469" id="Stroke-4"/></g></g></g></g></svg>