<svg width="80" height="72" viewBox="0 0 80 72" version="1.1" xmlns="http://www.w3.org/2000/svg" xmlns:xlink="http://www.w3.org/1999/xlink"><title>icone</title><desc>Created with Sketch.</desc><g id="landing-page" stroke="none" stroke-width="1" fill="none" fill-rule="evenodd"><g id="1440-1024-px/landing-" transform="translate(-395.000000, -6544.000000)"><g id="ATUACAO" transform="translate(-1176.000000, 5976.000000)"><g id="empresas-familiares" transform="translate(1476.000000, 533.000000)"><g id="icone" transform="translate(95.000000, 34.000000)"><polyline id="Stroke-1" stroke="#45D4C3" stroke-width="2" stroke-linecap="round" stroke-linejoin="round" stroke-dasharray="1.988,2.982" points="51.4034 58.75 39.5334 58.75 25.4084 58.75"/><path d="M51.9591,30.9258 L61.1551,44.8908" id="Stroke-2" stroke="#45D4C3" stroke-width="2" stroke-linecap="round" stroke-linejoin="round" stroke-dasharray="1.988,2.982"/><path d="M27.9898,30.9258 L18.7948,44.8908" id="Stroke-3" stroke="#45D4C3" stroke-width="2" stroke-linecap="round" stroke-linejoin="round" stroke-dasharray="1.988,2.982"/><g id="Group-16" transform="translate(0.000000, 0.699400)" fill="#45D4C3"><path d="M40.0006,0.3006 C38.0626,0.3006 36.3056,1.0886 35.0366,2.3576 C33.7676,3.6256 32.9806,5.3826 32.9806,7.3216 C32.9806,9.2596 33.7676,11.0176 35.0366,12.2856 C36.3056,13.5546 38.0626,14.3416 40.0006,14.3416 C41.9396,14.3416 43.6966,13.5546 44.9656,12.2856 C46.2336,11.0176 47.0216,9.2596 47.0216,7.3216 C47.0216,5.3826 46.2336,3.6256 44.9656,2.3576 C43.6966,1.0886 41.9396,0.3006 40.0006,0.3006 M40.0006,2.3006 C41.3416,2.3006 42.6026,2.8226 43.5516,3.7716 C44.4996,4.7196 45.0216,5.9806 45.0216,7.3216 C45.0216,8.6626 44.4996,9.9236 43.5516,10.8716 C42.6036,11.8206 41.3426,12.3416 40.0006,12.3416 C38.6596,12.3416 37.3986,11.8206 36.4506,10.8706 C35.5026,9.9236 34.9806,8.6626 34.9806,7.3216 C34.9806,5.9806 35.5026,4.7196 36.4506,3.7716 C37.3996,2.8226 38.6606,2.3006 40.0006,2.3006" id="Fill-4"/><path d="M32.6197,14.2557 C32.2797,14.2557 31.9407,14.3757 31.6727,14.6117 L31.6707,14.6107 C30.8507,15.3337 30.1217,16.1697 29.5057,17.0957 C28.9087,17.9927 28.4177,18.9847 28.0637,20.0377 C27.9107,20.4917 28.0007,20.9697 28.2607,21.3317 C29.5947,23.1857 31.3647,24.7177 33.4137,25.7697 C35.3947,26.7857 37.6367,27.3607 40.0007,27.3607 C42.3657,27.3607 44.6067,26.7857 46.5877,25.7697 C48.6377,24.7177 50.4067,23.1857 51.7397,21.3317 C52.0197,20.9437 52.0757,20.4607 51.9347,20.0377 L51.9367,20.0377 C51.5797,18.9767 51.0897,17.9817 50.4947,17.0887 L50.4247,16.9917 C49.8317,16.1157 49.1237,15.3137 48.3327,14.6157 C48.0597,14.3747 47.7207,14.2557 47.3817,14.2557 C47.0287,14.2557 46.6767,14.3857 46.4047,14.6397 C45.5397,15.3987 44.5337,16.0067 43.4377,16.4197 C42.3807,16.8197 41.2187,17.0407 40.0007,17.0407 C38.7837,17.0407 37.6217,16.8197 36.5637,16.4197 C35.4567,16.0017 34.4427,15.3847 33.5727,14.6157 C33.2987,14.3747 32.9587,14.2557 32.6197,14.2557 M32.6357,16.4427 C33.6067,17.2297 34.6887,17.8507 35.8567,18.2907 C37.1747,18.7887 38.5687,19.0407 40.0007,19.0407 C41.4327,19.0407 42.8277,18.7887 44.1437,18.2917 C45.3157,17.8497 46.3977,17.2297 47.3657,16.4437 C47.8897,16.9497 48.3607,17.5107 48.7687,18.1137 C48.7797,18.1297 48.7907,18.1457 48.8017,18.1607 L48.8487,18.2267 C49.2927,18.8977 49.6607,19.6267 49.9437,20.3987 C48.8107,21.8977 47.3407,23.1357 45.6747,23.9897 C43.9027,24.8997 41.9937,25.3607 40.0007,25.3607 C38.0087,25.3607 36.0997,24.8997 34.3267,23.9887 C32.6597,23.1347 31.1887,21.8967 30.0567,20.3987 C30.3407,19.6267 30.7147,18.8897 31.1717,18.2027 C31.5977,17.5627 32.0887,16.9717 32.6357,16.4427 M32.9957,16.1117 L33.0007,16.1117 L32.9957,16.1117 M47.7677,16.1027 L47.7737,16.1027 L47.7677,16.1027" id="Fill-6"/><path d="M12.0118,44.9393 C10.0738,44.9393 8.3158,45.7273 7.0478,46.9963 C5.7788,48.2643 4.9918,50.0213 4.9918,51.9603 C4.9918,53.8993 5.7788,55.6563 7.0478,56.9243 C8.3158,58.1943 10.0738,58.9813 12.0118,58.9813 C13.9458,58.9813 15.6998,58.1943 16.9708,56.9213 L16.9748,56.9243 C18.2428,55.6563 19.0318,53.8993 19.0318,51.9603 C19.0318,50.0213 18.2428,48.2643 16.9748,46.9963 L16.8758,46.9063 C15.6128,45.6883 13.8978,44.9393 12.0118,44.9393 M12.0118,46.9393 C13.3118,46.9393 14.5468,47.4393 15.4888,48.3463 C15.5018,48.3593 15.5158,48.3733 15.5308,48.3853 L15.5918,48.4413 C16.5198,49.3853 17.0318,50.6343 17.0318,51.9603 C17.0318,53.2603 16.5398,54.4863 15.6448,55.4243 C15.6148,55.4513 15.5858,55.4783 15.5568,55.5073 C14.6068,56.4583 13.3478,56.9813 12.0118,56.9813 C10.6708,56.9813 9.4098,56.4593 8.4618,55.5103 C7.5138,54.5623 6.9918,53.3013 6.9918,51.9603 C6.9918,50.6193 7.5138,49.3583 8.4618,48.4103 C9.4098,47.4613 10.6708,46.9393 12.0118,46.9393" id="Fill-8"/><path d="M4.628,58.8943 C4.276,58.8943 3.926,59.0233 3.655,59.2773 C2.843,59.9963 2.121,60.8273 1.52,61.7293 L1.517,61.7273 C0.921,62.6213 0.432,63.6163 0.075,64.6763 C-0.078,65.1303 0.012,65.6093 0.272,65.9713 C1.605,67.8273 3.374,69.3573 5.423,70.4083 C7.405,71.4253 9.648,71.9993 12.012,71.9993 C14.376,71.9993 16.617,71.4253 18.599,70.4083 C20.648,69.3573 22.417,67.8273 23.751,65.9713 C24.031,65.5823 24.087,65.1003 23.946,64.6763 L23.948,64.6763 C23.594,63.6233 23.103,62.6343 22.505,61.7333 C21.897,60.8183 21.165,59.9813 20.342,59.2553 C20.069,59.0133 19.729,58.8953 19.391,58.8953 C19.038,58.8953 18.686,59.0243 18.414,59.2793 C17.55,60.0383 16.543,60.6463 15.447,61.0593 C14.39,61.4583 13.23,61.6803 12.012,61.6803 C10.794,61.6803 9.632,61.4583 8.575,61.0593 C7.468,60.6413 6.453,60.0243 5.581,59.2553 C5.308,59.0133 4.967,58.8943 4.628,58.8943 M4.647,61.0823 C5.617,61.8683 6.699,62.4893 7.868,62.9303 C9.186,63.4273 10.58,63.6803 12.012,63.6803 C13.443,63.6803 14.836,63.4273 16.153,62.9303 C17.325,62.4883 18.407,61.8683 19.375,61.0833 C19.925,61.6153 20.417,62.2043 20.838,62.8373 C21.297,63.5303 21.672,64.2683 21.955,65.0373 C20.823,66.5353 19.353,67.7733 17.686,68.6283 C15.913,69.5393 14.004,69.9993 12.012,69.9993 C10.046,69.9993 8.084,69.5263 6.336,68.6283 C4.669,67.7733 3.198,66.5353 2.067,65.0383 C2.341,64.2903 2.693,63.5843 3.117,62.9333 C3.141,62.9023 3.163,62.8703 3.185,62.8363 C3.608,62.2013 4.099,61.6133 4.647,61.0823 M19.778,60.7413 L19.783,60.7413 L19.778,60.7413 M5.021,60.7373 L5.026,60.7373 L5.021,60.7373" id="Fill-10"/><path d="M67.9903,44.9393 C66.0513,44.9393 64.2943,45.7273 63.0263,46.9963 C61.7573,48.2643 60.9693,50.0213 60.9693,51.9603 C60.9693,53.8993 61.7573,55.6563 63.0263,56.9243 C64.2943,58.1943 66.0513,58.9813 67.9903,58.9813 C69.9243,58.9813 71.6773,58.1943 72.9493,56.9213 L72.9523,56.9243 C74.2213,55.6563 75.0093,53.8993 75.0093,51.9603 C75.0093,50.0213 74.2213,48.2643 72.9523,46.9963 L72.8543,46.9063 C71.5903,45.6883 69.8763,44.9393 67.9903,44.9393 M67.9903,46.9393 C69.2903,46.9393 70.5253,47.4393 71.4663,48.3463 C71.4793,48.3583 71.4913,48.3703 71.5043,48.3813 L71.5673,48.4393 C72.4973,49.3833 73.0093,50.6323 73.0093,51.9603 C73.0093,53.2623 72.5163,54.4893 71.6193,55.4273 C71.5913,55.4533 71.5623,55.4793 71.5353,55.5063 C70.5853,56.4583 69.3253,56.9813 67.9903,56.9813 C66.6483,56.9813 65.3873,56.4593 64.4403,55.5103 C63.4913,54.5623 62.9693,53.3013 62.9693,51.9603 C62.9693,50.6203 63.4913,49.3583 64.4403,48.4103 C65.3883,47.4613 66.6493,46.9393 67.9903,46.9393" id="Fill-12"/><path d="M60.606,58.8943 C60.254,58.8943 59.904,59.0233 59.632,59.2773 C58.821,59.9963 58.099,60.8273 57.498,61.7293 L57.495,61.7273 C56.899,62.6213 56.41,63.6163 56.053,64.6763 C55.899,65.1303 55.99,65.6093 56.25,65.9713 C57.584,67.8273 59.352,69.3573 61.401,70.4083 C63.383,71.4253 65.626,71.9993 67.99,71.9993 C70.354,71.9993 72.596,71.4253 74.577,70.4083 C76.626,69.3573 78.397,67.8253 79.73,65.9713 C80.011,65.5813 80.067,65.0983 79.924,64.6733 L79.927,64.6713 C79.57,63.6163 79.081,62.6223 78.484,61.7263 L78.411,61.6273 C77.815,60.7533 77.111,59.9543 76.32,59.2553 C76.047,59.0133 75.708,58.8953 75.369,58.8953 C75.016,58.8953 74.664,59.0243 74.391,59.2793 C73.527,60.0383 72.521,60.6463 71.426,61.0593 C70.368,61.4583 69.208,61.6803 67.99,61.6803 C66.772,61.6803 65.61,61.4583 64.553,61.0593 C63.446,60.6413 62.43,60.0243 61.56,59.2553 C61.286,59.0133 60.945,58.8943 60.606,58.8943 M60.625,61.0823 C61.594,61.8683 62.676,62.4883 63.846,62.9303 C65.164,63.4273 66.558,63.6803 67.99,63.6803 C69.421,63.6803 70.815,63.4273 72.132,62.9303 C73.303,62.4883 74.384,61.8683 75.353,61.0833 C75.876,61.5903 76.347,62.1503 76.757,62.7523 C76.773,62.7763 76.789,62.7983 76.806,62.8213 L76.847,62.8753 C77.288,63.5443 77.653,64.2703 77.935,65.0363 C76.803,66.5353 75.332,67.7733 73.663,68.6283 C71.891,69.5393 69.982,69.9993 67.99,69.9993 C66.025,69.9993 64.062,69.5263 62.314,68.6283 C60.647,67.7733 59.176,66.5353 58.046,65.0383 C58.32,64.2903 58.672,63.5843 59.095,62.9333 C59.119,62.9023 59.142,62.8703 59.164,62.8363 C59.586,62.2013 60.077,61.6133 60.625,61.0823 M75.754,60.7423 L75.759,60.7423 L75.754,60.7423 M60.998,60.7383 L61.003,60.7383 L60.998,60.7383" id="Fill-14"/></g></g></g></g></g></g></svg>