<?xml version="1.0" encoding="UTF-8" standalone="no"?>
<svg width="56px" height="50px" viewBox="0 0 56 50" version="1.1" xmlns="http://www.w3.org/2000/svg" xmlns:xlink="http://www.w3.org/1999/xlink">
    <!-- Generator: Sketch 46.2 (44496) - http://www.bohemiancoding.com/sketch -->
    <title>icone</title>
    <desc>Created with Sketch.</desc>
    <defs></defs>
    <g id="soluções" stroke="none" stroke-width="1" fill="none" fill-rule="evenodd">
        <g id="1440-1024/servicos/2" transform="translate(-201.000000, -136.000000)">
            <g id="EMPRESAS-FAMILIARES" transform="translate(201.000000, 136.000000)">
                <g id="icone">
                    <polyline id="Stroke-1" stroke="#3DC6B5" stroke-width="2" stroke-linecap="round" stroke-linejoin="round" stroke-dasharray="1.988,2.982" points="35.4797548 40.069991 27.2871711 40.069991 17.5376196 40.069991"></polyline>
                    <path d="M35.8635467,20.8646531 L42.2111842,30.5038577" id="Stroke-2" stroke="#3DC6B5" stroke-width="2" stroke-linecap="round" stroke-linejoin="round" stroke-dasharray="1.988,2.982"></path>
                    <path d="M19.3194528,20.8646531 L12.9718152,30.5038577" id="Stroke-3" stroke="#3DC6B5" stroke-width="2" stroke-linecap="round" stroke-linejoin="round" stroke-dasharray="1.988,2.982"></path>
                    <path d="M27.6094647,0.209330144 C26.2718451,0.209330144 25.059375,0.752990431 24.1833283,1.62903708 C23.3072817,2.50508373 22.7636214,3.71755383 22.7636214,5.05517344 C22.7636214,6.39279306 23.3072817,7.60660885 24.1833283,8.48130981 C25.059375,9.35735646 26.2718451,9.90101675 27.6094647,9.90101675 C28.94843,9.90101675 30.1609001,9.35735646 31.0369468,8.48130981 C31.9116477,7.60660885 32.455308,6.39279306 32.455308,5.05517344 C32.455308,3.71755383 31.9116477,2.50508373 31.0369468,1.62903708 C30.1609001,0.752990431 28.94843,0.209330144 27.6094647,0.209330144 M27.6094647,2.9007177 C28.1854217,2.9007177 28.7263906,3.12544856 29.1327901,3.53184809 C29.5405353,3.93824761 29.7639205,4.47921651 29.7639205,5.05517344 C29.7639205,5.63113038 29.5405353,6.17209928 29.1327901,6.5784988 C28.7263906,6.98489833 28.1854217,7.20962919 27.6094647,7.20962919 C27.0335078,7.20962919 26.4925389,6.98489833 26.0861394,6.5784988 C25.6797398,6.17209928 25.455009,5.63113038 25.455009,5.05517344 C25.455009,4.47921651 25.6797398,3.93824761 26.0861394,3.53184809 C26.4938846,3.12544856 27.0348535,2.9007177 27.6094647,2.9007177" id="Fill-4" fill="#3DC6B5"></path>
                    <path d="M22.5148026,9.84167165 C22.2806519,9.84167165 22.0465012,9.92375897 21.8607955,10.0879336 L21.8594498,10.0865879 C21.2942584,10.5858403 20.7909689,11.1631429 20.3657297,11.8023475 C19.9539474,12.4213666 19.6148325,13.1063248 19.3699163,13.8316537 C19.2649522,14.1452004 19.3268541,14.476241 19.5058313,14.7265401 C20.4262859,16.0049492 21.6481758,17.0626645 23.0638457,17.7879934 C24.4310706,18.4904456 25.9772727,18.8874252 27.6095993,18.8874252 C29.2419258,18.8874252 30.788128,18.4904456 32.1566986,17.7879934 C33.5710227,17.0626645 34.791567,16.0049492 35.7120215,14.7265401 C35.9058014,14.4574013 35.9434809,14.125015 35.8465909,13.8316537 L35.8479366,13.8316537 C35.6016746,13.0995963 35.2639055,12.4132925 34.8521232,11.7969647 L34.8050239,11.72968 C34.3945873,11.1254635 33.9061005,10.5710377 33.3597488,10.090625 C33.1726974,9.92375897 32.937201,9.84167165 32.7043959,9.84167165 C32.4608254,9.84167165 32.2172548,9.93048744 32.0288577,10.1067733 C31.4327153,10.6302482 30.7383373,11.0501047 29.9820574,11.3353917 C29.2513457,11.611259 28.4506579,11.7646681 27.6095993,11.7646681 C26.7698864,11.7646681 25.9678529,11.611259 25.2371411,11.3353917 C24.4727871,11.0474133 23.7730263,10.6208283 23.1728469,10.090625 C22.9844498,9.92375897 22.7489533,9.84167165 22.5148026,9.84167165 M22.7395335,13.100942 C23.229366,13.3983403 23.7461124,13.649985 24.2857356,13.8531848 C25.3447967,14.2528559 26.4617225,14.4560556 27.6095993,14.4560556 C28.7574761,14.4560556 29.8757476,14.2528559 30.9321172,13.8531848 C31.4730861,13.649985 31.9898325,13.3983403 32.4796651,13.100942 C32.5119617,13.1466956 32.5442584,13.1924492 32.576555,13.2395484 C32.5913577,13.2610795 32.6061603,13.2826106 32.6209629,13.3027961 L32.6371112,13.3270185 C32.7501495,13.4979217 32.8537679,13.6768989 32.9479665,13.861259 C32.3693182,14.4843152 31.6816687,15.0064444 30.9267344,15.3940042 C29.8905502,15.9255532 28.7749701,16.1960377 27.6095993,16.1960377 C26.4442285,16.1960377 25.3286483,15.9255532 24.2911184,15.3940042 C23.5361842,15.0064444 22.8498804,14.4843152 22.2712321,13.8626047 C22.3721591,13.6661334 22.4838517,13.4763906 22.6063098,13.2920305 C22.649372,13.2274372 22.6937799,13.1628439 22.7395335,13.100942" id="Fill-6" fill="#3DC6B5"></path>
                    <path d="M8.29095395,31.0203349 C6.95333433,31.0203349 5.73951854,31.5639952 4.86481758,32.4400419 C3.98877093,33.3160885 3.44511065,34.5285586 3.44511065,35.8661782 C3.44511065,37.2037978 3.98877093,38.4176136 4.86481758,39.2923146 C5.73951854,40.1683612 6.95333433,40.7120215 8.29095395,40.7120215 C9.62588218,40.7120215 10.8356609,40.1683612 11.7143989,39.2909689 L11.7170903,39.2923146 C12.5917913,38.4176136 13.1354516,37.2037978 13.1354516,35.8661782 C13.1354516,34.5285586 12.5917913,33.3160885 11.7170903,32.4400419 L11.6484599,32.3767943 C10.7764504,31.5370813 9.59358553,31.0203349 8.29095395,31.0203349 M8.29095395,33.7117225 C8.84807117,33.7117225 9.37692883,33.9256878 9.78063696,34.315939 C9.79947667,34.333433 9.81831639,34.3522727 9.83850179,34.3697667 L9.84926734,34.3791866 C10.2327901,34.781549 10.444064,35.3077153 10.444064,35.8661782 C10.444064,36.4111842 10.2435556,36.9252392 9.87752691,37.3235646 C9.85465012,37.34375 9.83177333,37.3652811 9.81024222,37.3881579 C9.40249701,37.7959031 8.8628738,38.020634 8.29095395,38.020634 C7.71499701,38.020634 7.17402811,37.7972488 6.76762859,37.3895036 C6.36122907,36.9831041 6.13649821,36.4421352 6.13649821,35.8661782 C6.13649821,35.2902213 6.36122907,34.7492524 6.76762859,34.3428529 C7.17402811,33.9364533 7.71499701,33.7117225 8.29095395,33.7117225" id="Fill-8" fill="#3DC6B5"></path>
                    <path d="M3.19427333,40.6524073 C2.95204844,40.6524073 2.70982356,40.7412231 2.52277213,40.9161633 C1.96296352,41.4127243 1.46371112,41.9859898 1.04923744,42.6090461 L1.04654605,42.6077004 C0.63610945,43.2240281 0.298340311,43.9116776 0.0520783493,44.643735 C-0.0542314593,44.9572817 0.00767045455,45.2869767 0.187993421,45.5372757 C1.10844797,46.8170305 2.32899222,47.8734001 3.74331639,48.6000748 C5.11054127,49.3011812 6.65943481,49.6981609 8.29041567,49.6981609 C9.92274222,49.6981609 11.4702901,49.3011812 12.837515,48.6000748 C14.2518391,47.8734001 15.4723834,46.8170305 16.3928379,45.5372757 C16.5866178,45.2694827 16.6256429,44.9357506 16.528753,44.643735 L16.5300987,44.643735 C16.2851824,43.9170604 15.9460676,43.233448 15.5342853,42.6117374 C15.1130831,41.9806071 14.608448,41.4019587 14.0405652,40.9013606 C13.8521681,40.7344946 13.6180173,40.6524073 13.3838666,40.6524073 C13.1402961,40.6524073 12.8980712,40.7425688 12.709674,40.917509 C12.1135317,41.4409839 11.417808,41.8608403 10.6615281,42.1461274 C9.93216208,42.4219946 9.13147428,42.5754037 8.29041567,42.5754037 C7.45070275,42.5754037 6.64866926,42.4219946 5.91795754,42.1461274 C5.15494916,41.8581489 4.4538427,41.431564 3.85231758,40.9013606 C3.66392045,40.7344946 3.42842404,40.6524073 3.19427333,40.6524073 M3.42034988,43.9116776 C3.91018242,44.209076 4.42692883,44.4607207 4.96789773,44.6639205 C6.02561304,45.0635915 7.14388457,45.2667913 8.29041567,45.2667913 C9.43829246,45.2667913 10.5552183,45.0635915 11.6129336,44.6652661 C12.1539025,44.4607207 12.6706489,44.209076 13.1604815,43.9116776 C13.2048894,43.9735795 13.2479516,44.0354815 13.2896681,44.0973834 C13.4134719,44.2844348 13.5265102,44.476869 13.6274372,44.6733403 C13.0487889,45.2963965 12.3638307,45.81718 11.6088965,46.2047398 C10.5727123,46.7362889 9.45578648,47.0067733 8.29041567,47.0067733 C7.12504486,47.0067733 6.00811902,46.7362889 4.97193481,46.2047398 C4.2156549,45.81718 3.52935108,45.2950508 2.95070275,44.6719946 C3.03682715,44.5051286 3.12968002,44.3422996 3.23060706,44.1861992 C3.25079246,44.1579396 3.27097787,44.1283343 3.28981758,44.1000748 C3.33287978,44.0354815 3.37594199,43.9735795 3.42034988,43.9116776" id="Fill-10" fill="#3DC6B5"></path>
                    <path d="M46.9283792,31.0203349 C45.5894139,31.0203349 44.3769438,31.5639952 43.5022428,32.4400419 C42.6261962,33.3160885 42.0825359,34.5285586 42.0825359,35.8661782 C42.0825359,37.2037978 42.6261962,38.4176136 43.5022428,39.2923146 C44.3769438,40.1683612 45.5894139,40.7120215 46.9283792,40.7120215 C48.2633074,40.7120215 49.4730861,40.1683612 50.3518242,39.2909689 L50.3531699,39.2923146 C51.2292165,38.4176136 51.7728768,37.2037978 51.7728768,35.8661782 C51.7728768,34.5285586 51.2292165,33.3160885 50.3531699,32.4400419 L50.2858852,32.3767943 C49.4138756,31.5370813 48.2310108,31.0203349 46.9283792,31.0203349 M46.9283792,33.7117225 C47.4854964,33.7117225 48.0143541,33.9256878 48.4180622,34.315939 C48.4355562,34.3320873 48.4517045,34.3482356 48.4691986,34.3630383 L48.4840012,34.3778409 C48.8702153,34.7802033 49.0814892,35.3063696 49.0814892,35.8661782 C49.0814892,36.4125299 48.8796352,36.9279306 48.5122608,37.326256 C48.4907297,37.3464414 48.4691986,37.3666268 48.4490132,37.3868122 C48.0399222,37.7959031 47.500299,38.020634 46.9283792,38.020634 C46.3524222,38.020634 45.8114533,37.7972488 45.4050538,37.3895036 C44.9973086,36.9831041 44.7739234,36.4421352 44.7739234,35.8661782 C44.7739234,35.2902213 44.9973086,34.7492524 45.4050538,34.3428529 C45.8114533,33.9364533 46.3524222,33.7117225 46.9283792,33.7117225" id="Fill-12" fill="#3DC6B5"></path>
                    <path d="M41.8316986,40.6524073 C41.588128,40.6524073 41.3472488,40.7412231 41.1601974,40.9161633 C40.6003888,41.4127243 40.1011364,41.9859898 39.6866627,42.6090461 L39.6839713,42.6077004 C39.2735347,43.2240281 38.9357656,43.9116776 38.6895036,44.643735 C38.5831938,44.9572817 38.6450957,45.2869767 38.8254187,45.5372757 C39.7458732,46.8170305 40.9664175,47.8734001 42.3807416,48.6000748 C43.7479665,49.3011812 45.29686,49.6981609 46.9278409,49.6981609 C48.5601675,49.6981609 50.1077153,49.3011812 51.4749402,48.6000748 C52.8892644,47.8734001 54.1111543,46.8156848 55.0316089,45.5372757 C55.2253888,45.268137 55.2644139,44.9344049 55.1661782,44.6410437 L55.1675239,44.639698 C54.921262,43.9116776 54.5834928,43.2253738 54.1717105,42.6063547 L54.1205742,42.53907 C53.7101376,41.9348535 53.2243421,41.383119 52.6779904,40.9013606 C52.4895933,40.7344946 52.2554426,40.6524073 52.0212919,40.6524073 C51.7777213,40.6524073 51.5354964,40.7425688 51.3470993,40.917509 C50.7509569,41.4409839 50.0552333,41.8608403 49.300299,42.1461274 C48.5695873,42.4219946 47.7688995,42.5754037 46.9278409,42.5754037 C46.088128,42.5754037 45.2860945,42.4219946 44.5553828,42.1461274 C43.7923744,41.8581489 43.0912679,41.431564 42.4897428,40.9013606 C42.3013457,40.7344946 42.0658493,40.6524073 41.8316986,40.6524073 M42.0577751,43.9116776 C42.5476077,44.209076 43.0643541,44.4607207 43.605323,44.6639205 C44.6630383,45.0635915 45.7813098,45.2667913 46.9278409,45.2667913 C48.0757177,45.2667913 49.1926435,45.0635915 50.2503589,44.6639205 C50.7913278,44.4607207 51.3080742,44.209076 51.796561,43.9116776 C51.8302033,43.9587769 51.8638457,44.0058762 51.8961423,44.0529755 C51.9176734,44.0839264 51.9392045,44.1148774 51.9607356,44.1444827 L51.9661184,44.1512111 C52.0751196,44.3194228 52.1760467,44.4930173 52.2675538,44.6719946 C51.6889055,45.2950508 51.001256,45.81718 50.2449761,46.2047398 C49.2087919,46.7362889 48.0932117,47.0067733 46.9278409,47.0067733 C45.7624701,47.0067733 44.6455443,46.7362889 43.60936,46.2047398 C42.8530801,45.81718 42.1667763,45.2950508 41.588128,44.6719946 C41.6742524,44.5051286 41.7671053,44.3422996 41.8680323,44.1848535 C41.8882177,44.1579396 41.9084031,44.1283343 41.9272428,44.1000748 C41.970305,44.0354815 42.0133672,43.9735795 42.0577751,43.9116776" id="Fill-14" fill="#3DC6B5"></path>
                </g>
            </g>
        </g>
    </g>
</svg>