<svg width="108" height="113" xmlns="http://www.w3.org/2000/svg">
  <g fill="none" fill-rule="evenodd">
    <path fill="#A2F0DE" d="M.18121157 78.9700098H100.160577V.47203065H.18121157m0 84.20692305H100.160577v10.9421426H.18121157"/>
    <path stroke="#315D79" stroke-width="3" stroke-linejoin="round" d="M88.324127 22.0784384H37.5917406v88.7773576h68.1091921V38.1448842z"/>
    <path fill="#FFF" d="M88.324127 38.1442537h17.3768057L88.3246541 22.0783333"/>
    <path stroke="#315D79" stroke-width="3" stroke-linejoin="round" d="M88.324127 38.1442537h17.3768057L88.3246541 22.0783333z"/>
    <path fill="#FFF" d="M45.9963727 81.2611195h20.433812v-24.270946h-20.433812"/>
    <path stroke="#315D79" stroke-width="3" stroke-linejoin="round" d="M45.9963727 81.2611195h20.433812v-24.270946h-20.433812z"/>
    <path d="M57.6854283 34.0084837c0 3.6010274-2.9289061 6.5200978-6.5425943 6.5200978-3.613161 0-6.5420671-2.9190704-6.5420671-6.5200978 0-3.6015529 2.9289061-6.5206233 6.5420671-6.5206233 3.6136882 0 6.5425943 2.9190704 6.5425943 6.5206233" fill="#FFF"/>
    <path d="M57.6854283 34.0084837c0 3.6010274-2.9289061 6.5200978-6.5425943 6.5200978-3.613161 0-6.5420671-2.9190704-6.5420671-6.5200978 0-3.6015529 2.9289061-6.5206233 6.5420671-6.5206233 3.6136882 0 6.5425943 2.9190704 6.5425943 6.5206233z" stroke="#315D79" stroke-width="3" stroke-linejoin="round"/>
    <path d="M64.4820615 29.526954h10.5258222m-10.5258222 4.7148556h13.9987584M45.9177203 48.999087h48.3902104M71.578491 65.0546046h22.7295978M71.578491 58.1164534h22.7295978M71.578491 72.3686202h22.7295978M71.578491 80.209445h22.7295978m-48.3903685 9.3779602h36.3018831M64.8119588 39.5987451h4.2315207m2.3105464.1166367h4.2315208" stroke="#315D79" stroke-width="2"/>
    <path stroke="#315D79" stroke-width="3" stroke-linejoin="round" stroke-dasharray="5.873" d="M23.5465392 74.0798701V8.93143084h43.5788126"/>
  </g>
</svg>
