<svg width="30" height="31" xmlns="http://www.w3.org/2000/svg" xmlns:xlink="http://www.w3.org/1999/xlink">
  <defs>
    <path id="a" d="M29.4123077 29.8367984V.0003877H0v29.8364107h29.4123077z"/>
  </defs>
  <g transform="translate(0 .47)" fill="none" fill-rule="evenodd">
    <mask id="b" fill="#fff">
      <use xlink:href="#a"/>
    </mask>
    <path d="M24.9342308 24.9764353h-4.4415385v-7.2075742c0-1.8113926-.6438461-3.0481952-2.2507692-3.0481952-1.2276923 0-1.9584616.8343571-2.2807693 1.640799-.1161538.2869072-.1453846.6893527-.1453846 1.0917982v7.5231722h-4.4423077s.0576923-12.2090647 0-13.4730072h4.4423077v1.9083206c.5915385-.9165522 1.6469231-2.224694 4.0038462-2.224694 2.9238461 0 5.1146154 1.92538 5.1146154 6.064598v7.7247826zM6.69346154 9.66412024h-.02923077c-1.49 0-2.4546154-1.0351922-2.4546154-2.3286009 0-1.31977314.9946154-2.32782548 2.51307694-2.32782548 1.52 0 2.45615386 1.00805234 2.48384617 2.32782548 0 1.2934087-.96384615 2.3286009-2.51307692 2.3286009zM4.47192308 24.9764353H8.915V11.5034281H4.47192308v13.4730072zM27.2396154 0H2.1726923C.9719231 0-.0003846.95764972-.0003846 2.1378464v25.5618811c0 1.180972.9723077 2.1370709 2.17307693 2.1370709h25.0669231c1.1992308 0 2.1730769-.9560989 2.1730769-2.1370709V2.1378464C29.4126923.9576497 28.4388462 0 27.2396154 0z" fill="#CCA969" mask="url(#b)"/>
  </g>
</svg>
