<svg width="25" height="33" viewBox="0 0 25 33" version="1.1" xmlns="http://www.w3.org/2000/svg" xmlns:xlink="http://www.w3.org/1999/xlink"><title>simbolo/home</title><desc>Created with Sketch.</desc><defs><polygon id="path-1" points="0.0274721001 0.333547256 0.0274721001 32.345634 24.1626278 32.345634 24.1626278 0.333547256 0.0274721001 0.333547256"/></defs><g id="soluções" stroke="none" stroke-width="1" fill="none" fill-rule="evenodd"><g id="1440-1024/servicos/2" transform="translate(-222.000000, -18.000000)"><g id="MENU-FIXO-(só-aparece-quando-rola-para-cima" transform="translate(0.000000, -1.000000)"><g id="simbolo/home" transform="translate(222.000000, 19.000000)"><mask id="mask-2" fill="#fff"><use xlink:href="#path-1"/></mask><path d="M2.87495528,29.5554 L2.87495528,9.8089577 L10.7878358,23.9184514 L13.3761655,23.9184514 L21.2899618,9.82052067 L21.2899618,29.5554 L2.87495528,29.5554 Z M20.8595656,4.7612759 L12.0840611,20.3957476 L3.3113038,4.7612759 L0,4.7612759 L0,32.345634 L24.1626278,32.345634 L24.1626278,4.7612759 L20.8595656,4.7612759 L20.8595656,4.7612759 Z" id="Fill-186" fill="#44D5C3" mask="url(#mask-2)"/><polygon id="Fill-188" fill="#44D5C3" mask="url(#mask-2)" points="0.0274721001 3.12378123 24.1626278 3.12378123 24.1626278 0.333547256 0.0274721001 0.333547256"/><polyline id="Fill-181" fill="#44D5C3" mask="url(#mask-2)" points="7.75949468 15.9889213 12.0840611 8.28264546 16.4773078 16.1125561 18.0880886 13.1559932 13.3761655 4.7612759 10.7878358 4.7612759 5.96510867 13.3583452 7.75949468 15.9889213"/></g></g></g></g></svg>