<svg width="26" height="33" xmlns="http://www.w3.org/2000/svg">
  <g fill="none" fill-rule="evenodd">
    <path fill="#BB9E6D" d="M14.5285593 5.1146603l-.0611482-.09754412h-2.9745926L6.33567037 13.133175l-.0755926.1174412 2.17003704 2.8064559 4.5524074-7.16002945 4.6453334 7.30658825 1.9471111-3.1548971M0 3.0107647h25.9590741V0H0"/>
    <path d="M11.6268148 11.0297647l-3.19655554 5.0271618-2.17003704-2.8064559.0751111-.1174412 3.00492594-4.72822058m4.98333334 2.62495588l3.1965555 5.0271618 2.1705186-2.8064559-.0755926-.1174412-3.004926-4.72822058"/>
    <path d="M22.1372667 5.01711618L12.9828593 19.4119103l-9.0903704-14.29725-.06162964-.09754412H.0001926V32.8055426h25.9590741V5.01711618h-3.822zM3.46252593 10.6538074l7.96948147 12.5404852.0606667.0975442h2.9745926l8.032074-12.6278383v19.1307794H3.46252593V10.6538074z" fill="#BB9E6D"/>
  </g>
</svg>
