<svg width="90" height="33" viewBox="0 0 90 33" version="1.1" xmlns="http://www.w3.org/2000/svg" xmlns:xlink="http://www.w3.org/1999/xlink"><g id="FAQ" stroke="none" stroke-width="1" fill="none" fill-rule="evenodd" class="logo__image"><g id="360-320px/FAQ" transform="translate(-32.000000, -51.000000)"><g id="Group" transform="translate(32.000000, 51.000000)"><g id="logo"><polygon id="Fill-1" fill="#BB9E6D" points="14.5285593 5.11466029 14.4674111 5.01711618 11.4928185 5.01711618 6.33567037 13.133175 6.26007778 13.2506162 8.43011481 16.0570721 12.9825222 8.89704265 17.6278556 16.2036309 19.5749667 13.0487338"/><polygon id="Fill-2" fill="#BB9E6D" points="0 3.01076471 25.9590741 3.01076471 25.9590741 0 0 0"/><polygon id="Fill-3" points="11.6268148 11.0297647 8.43025926 16.0569265 6.26022222 13.2504706 6.33533333 13.1330294 9.34025926 8.40480882"/><polygon id="Fill-5" points="14.3235926 11.0297647 17.5201481 16.0569265 19.6906667 13.2504706 19.6150741 13.1330294 16.6101481 8.40480882"/><path d="M22.1372667,5.01711618 L12.9828593,19.4119103 L3.89248889,5.11466029 L3.83085926,5.01711618 L0.000192592593,5.01711618 L0.000192592593,32.8055426 L25.9592667,32.8055426 L25.9592667,5.01711618 L22.1372667,5.01711618 Z M3.46252593,10.6538074 L11.4320074,23.1942926 L11.4926741,23.2918368 L14.4672667,23.2918368 L22.4993407,10.6639985 L22.4993407,29.7947779 L3.46252593,29.7947779 L3.46252593,10.6538074 Z" id="Fill-7" fill="#BB9E6D"/></g><g id="CABECALHO" transform="translate(40.000000, 2.000000)"><path d="M1,0.496666815 L1,29.5" id="Path-2" stroke="#E8BE6F"/><text id="F.A.Q" font-family="Montserrat-Light, Montserrat" font-size="16" font-weight="300" line-spacing="14" fill="#CCA969"><tspan x="8" y="23">F.A.Q </tspan></text></g></g></g></g><g fill="none" fill-rule="evenodd" class="logo__image logo__image--mb"><path fill="#BB9E6D" d="M14.5285593 5.1146603l-.0611482-.09754412h-2.9745926L6.33567037 13.133175l-.0755926.1174412 2.17003704 2.8064559 4.5524074-7.16002945 4.6453334 7.30658825 1.9471111-3.1548971M0 3.0107647h25.9590741V0H0"/><path d="M11.6268148 11.0297647l-3.19655554 5.0271618-2.17003704-2.8064559.0751111-.1174412 3.00492594-4.72822058m4.98333334 2.62495588l3.1965555 5.0271618 2.1705186-2.8064559-.0755926-.1174412-3.004926-4.72822058"/><path d="M22.1372667 5.01711618L12.9828593 19.4119103l-9.0903704-14.29725-.06162964-.09754412H.0001926V32.8055426h25.9590741V5.01711618h-3.822zM3.46252593 10.6538074l7.96948147 12.5404852.0606667.0975442h2.9745926l8.032074-12.6278383v19.1307794H3.46252593V10.6538074z" fill="#BB9E6D"/><path d="M41 2.49666682V31.5" stroke="#E8BE6F"/><text font-family="Montserrat-Light, Montserrat" font-size="16" font-weight="300" fill="#CCA969" transform="translate(40 2)"><tspan x="8" y="23">F.A.Q </tspan></text></g></svg>