<svg width="29" height="24" viewBox="0 0 29 24" version="1.1" xmlns="http://www.w3.org/2000/svg" xmlns:xlink="http://www.w3.org/1999/xlink"><title>aviao</title><desc>Created with Sketch.</desc><defs><polygon id="path-1" points="14.2714222 0.808 0 0.808 0 23.1105609 28.5428444 23.1105609 28.5428444 0.808 14.2714222 0.808"/></defs><g id="soluções" stroke="none" stroke-width="1" fill="none" fill-rule="evenodd"><g id="1440-1024/servicos/2" transform="translate(-916.000000, -1069.000000)"><g id="SABER-MAIS" transform="translate(455.000000, 931.000000)"><g id="normal" transform="translate(18.000000, 137.000000)"><g id="aviao" transform="translate(443.000000, 1.000000)"><path d="M8.60186667,20.2023111 C8.77431111,20.0280889 9.05697778,20.0272 9.2312,20.2005333 C9.40453333,20.3729778 9.40542222,20.6556444 9.23297778,20.8289778 L7.00275556,23.0609778 C6.83031111,23.2343111 6.54853333,23.2352 6.37431111,23.0627556 C6.28631111,22.9756444 6.24275556,22.8609778 6.24275556,22.7472 L6.24186667,22.7472 L6.24186667,15.6085333 C6.24186667,15.4405333 6.33431111,15.2938667 6.47208889,15.2183111 L22.4969778,4.53386667 C22.7005333,4.39697778 22.9769778,4.4512 23.1138667,4.65564444 C23.2498667,4.8592 23.1956444,5.13564444 22.9920889,5.27164444 L7.13342222,15.8458667 L7.13342222,21.6707556 L8.60186667,20.2023111 Z" id="Fill-1" fill="#E9BE6F"/><g id="Group-5" transform="translate(0.000000, 0.080533)"><mask id="mask-2" fill="#fff"><use xlink:href="#path-1"/></mask><path d="M8.15617778,17.6248889 C7.98284444,17.4506667 7.98462222,17.1688889 8.15884444,16.9955556 C8.33217778,16.8231111 8.61484444,16.824 8.78728889,16.9982222 L13.7624,21.9751111 L27.6504,2.008 L27.6504,1.84711111 L1.29217778,9.50133333 L7.00328889,15.2124444 C7.17662222,15.3857778 7.17662222,15.6693333 7.00328889,15.8435556 C6.82906667,16.0168889 6.54551111,16.0168889 6.37128889,15.8435556 L0.128622222,9.6 L0.1304,9.59822222 C0.0788444444,9.54666667 0.0397333333,9.48266667 0.0175111111,9.408 C-0.0509333333,9.17333333 0.0850666667,8.92533333 0.320622222,8.85777778 L27.9348444,0.839111111 C27.9855111,0.819555556 28.0397333,0.808 28.0966222,0.808 C28.3428444,0.808 28.5428444,1.00888889 28.5428444,1.25422222 L28.5428444,2.14666667 L28.5419556,2.14666667 C28.5419556,2.23466667 28.5161778,2.32444444 28.4628444,2.40177778 L14.1899556,22.92 L14.1899556,22.92 C14.1748444,22.9413333 14.1579556,22.9626667 14.1384,22.9822222 C13.9641778,23.1546667 13.6824,23.1528889 13.5090667,22.9795556 L8.15617778,17.6248889 Z" id="Fill-3" fill="#E9BE6F" mask="url(#mask-2)"/></g></g></g></g></g></g></svg>