<svg width="22" height="22" xmlns="http://www.w3.org/2000/svg"><path d="M17.7612128 12.9222873c-.4349766-.4522329-.9586147-.6944155-1.5143851-.6944155-.5510101 0-1.0800036.2374223-1.5322365.6902502l-1.415608 1.4108477c-.1166285-.0624796-.233257-.1207938-.3451251-.179108-.1612567-.0803309-.3135878-.1564964-.4439023-.2374223-1.3257564-.8419863-2.53131415-1.9398411-3.6868882-3.36020948-.55993575-.7081015-.93659815-1.30373984-1.20972302-1.90830382.3671417-.33619946.7081015-.68608492 1.03954062-1.02168933.12555414-.12555414.25051323-.25527357.37606736-.3808277.94076344-.94076345.94076344-2.1594121 0-3.1007706L7.8061386 2.91782453c-.13924013-.13924013-.28264556-.28205052-.4165303-.42545595-.26895957-.27788522-.55160513-.56469608-.8425813-.83365565C6.1126454 1.22849663 5.59257757 1 5.04632783 1c-.5468448 0-1.07524323.22849662-1.52331082.65871292l-.00892562.00892565L1.9901855 3.2046354c-.5730267.57302667-.9003005 1.27220254-.9717057 2.08324654-.10770283 1.30790515.27788522 2.52714885.57362173 3.32450686.72535777 1.95769242 1.8101217 3.7719794 3.42744935 5.7165809 1.96185773 2.3432805 4.3229895 4.1938651 7.02032072 5.4976049 1.030615.4879355 2.40576 1.0663176 3.9427568 1.1644998.0940169.0047603.1927941.0089256.2820506.0089256 1.0353753 0 1.9041385-.371307 2.5854631-1.1109458.0041653-.0089257.0130909-.013091.0178513-.0220166.2326619-.2826456.5016214-.5379192.784267-.811044.192199-.1838684.3891583-.3766624.5819523-.5783821.4439023-.4611586.6765643-.9990777.6765643-1.5500878 0-.5551754-.2374223-1.0889292-.6896552-1.5369968l-2.459909-2.4682396z" stroke="#44D5C3" fill="none" stroke-linecap="round" stroke-linejoin="round"/></svg>