<svg width="491" height="283" xmlns="http://www.w3.org/2000/svg"><g fill="#E9E9E9" fill-rule="evenodd"><path d="M3 282.96h179v-20.837H3M368.8 117.036l32.23-57.855 32.74 58.784 12.004-22.196-35.116-63.023h-19.29l-35.94 64.542 13.372 19.75"/><path d="M331.426 218.885V70.64l58.97 105.926h19.29l58.98-105.84v148.16h-137.24zm134.03-186.14l-65.4 117.375L334.68 32.745H310v207.088h180.073V32.745h-24.616zM311.082 20.976H490.95V.03H311.082"/><g><path d="M211.8 117.036l32.23-57.855 32.74 58.784 12.004-22.196-35.116-63.023h-19.29l-35.94 64.542 13.372 19.75"/><path d="M174.426 218.885V70.64l58.97 105.926h19.29l58.98-105.84v148.16h-137.24zm134.03-186.14l-65.4 117.375L177.68 32.745H153v207.088h180.073V32.745h-24.616zM154.082 20.976H333.95V.03H154.082"/></g><g><path d="M58.8 117.036L91.03 59.18l32.74 58.784 12.004-22.196-35.116-63.023h-19.29l-35.94 64.542 13.372 19.75"/><path d="M21.426 218.885V70.64l58.97 105.926h19.29l58.98-105.84v148.16H21.425zm134.03-186.14l-65.4 117.375L24.68 32.745H0v207.088h180.073V32.745h-24.616zM1.082 20.976H180.95V.03H1.082"/></g></g></svg>