<svg width="47" height="47" viewBox="0 0 47 47" version="1.1" xmlns="http://www.w3.org/2000/svg" xmlns:xlink="http://www.w3.org/1999/xlink"><title>icone</title><desc>Created with Sketch.</desc><g id="soluções" stroke="none" stroke-width="1" fill="none" fill-rule="evenodd"><g id="1440-1024/servicos/2" transform="translate(-206.000000, -138.000000)" stroke-width="2" stroke="#3DC6B5"><g id="PESSOAS-FISICAS" transform="translate(207.000000, 139.000000)"><g id="icone"><path d="M38.88135,37.91538 C36.76095,36.04248 33.26085,34.57278 29.01465,33.82038 C28.39095,33.70968 27.93825,33.17148 27.96615,32.53878 C27.99585,31.85028 27.99495,31.11948 27.99225,30.35898 C27.99225,28.61388 30.09195,26.51238 30.20625,24.06168 C30.90465,22.61178 31.30425,21.16908 31.30425,20.05398 C31.30425,19.32138 31.12425,18.84078 30.80835,18.52308 C30.97935,17.61048 31.12515,16.64568 31.30425,15.65208 C32.02335,11.65878 30.62925,8.77968 27.12195,7.53408 C25.85655,7.08498 20.60505,6.17508 18.64845,4.27968 C17.94015,3.59388 18.42525,7.45758 17.78355,7.74558 C14.34555,9.29178 12.98295,11.69478 13.69575,15.65208 C13.87485,16.64568 14.02065,17.61048 14.19165,18.52308 C13.87575,18.84078 13.69575,19.32138 13.69575,20.05398 C13.69575,21.16908 14.09535,22.61178 14.79375,24.06168 C14.90805,26.51238 17.00865,28.49148 17.00865,30.35898 C17.00505,31.11948 17.00505,31.85028 17.03385,32.53878 C17.06175,33.17148 16.60905,33.70968 15.98535,33.82038 C11.73915,34.57278 8.23905,36.04248 6.11865,37.91538" id="Stroke-1"/><path d="M45,22.5 C45,34.9263 34.9263,45 22.5,45 C10.0737,45 0,34.9263 0,22.5 C0,10.0737 10.0737,0 22.5,0 C34.9263,0 45,10.0737 45,22.5 Z" id="Stroke-3"/></g></g></g></g></svg>