<?xml version="1.0" encoding="UTF-8"?>
<svg width="82px" height="82px" viewBox="0 0 82 82" version="1.1" xmlns="http://www.w3.org/2000/svg" xmlns:xlink="http://www.w3.org/1999/xlink">
    <!-- Generator: Sketch 46.2 (44496) - http://www.bohemiancoding.com/sketch -->
    <title>icone</title>
    <desc>Created with Sketch.</desc>
    <defs></defs>
    <g id="landing-page" stroke="none" stroke-width="1" fill="none" fill-rule="evenodd">
        <g id="1440-1024-px/landing-" transform="translate(-964.000000, -6535.000000)" stroke="#45D4C3" stroke-width="2">
            <g id="ATUACAO" transform="translate(-1176.000000, 5976.000000)">
                <g id="pessoas" transform="translate(2046.000000, 533.000000)">
                    <g id="icone" transform="translate(95.000000, 27.000000)">
                        <path d="M69.1224,67.40512 C65.3528,64.07552 59.1304,61.46272 51.5816,60.12512 C50.4728,59.92832 49.668,58.97152 49.7176,57.84672 C49.7704,56.62272 49.7688,55.32352 49.764,53.97152 C49.764,50.86912 53.4968,47.13312 53.7,42.77632 C54.9416,40.19872 55.652,37.63392 55.652,35.65152 C55.652,34.34912 55.332,33.49472 54.7704,32.92992 C55.0744,31.30752 55.3336,29.59232 55.652,27.82592 C56.9304,20.72672 54.452,15.60832 48.2168,13.39392 C45.9672,12.59552 36.6312,10.97792 33.1528,7.60832 C31.8936,6.38912 32.756,13.25792 31.6152,13.76992 C25.5032,16.51872 23.0808,20.79072 24.348,27.82592 C24.6664,29.59232 24.9256,31.30752 25.2296,32.92992 C24.668,33.49472 24.348,34.34912 24.348,35.65152 C24.348,37.63392 25.0584,40.19872 26.3,42.77632 C26.5032,47.13312 30.2376,50.65152 30.2376,53.97152 C30.2312,55.32352 30.2312,56.62272 30.2824,57.84672 C30.332,58.97152 29.5272,59.92832 28.4184,60.12512 C20.8696,61.46272 14.6472,64.07552 10.8776,67.40512" id="Stroke-1"></path>
                        <path d="M80,40 C80,62.0912 62.0912,80 40,80 C17.9088,80 0,62.0912 0,40 C0,17.9088 17.9088,0 40,0 C62.0912,0 80,17.9088 80,40 Z" id="Stroke-3"></path>
                    </g>
                </g>
            </g>
        </g>
    </g>
</svg>