<?xml version="1.0" encoding="UTF-8" standalone="no"?>
<svg width="177px" height="170px" viewBox="0 0 177 170" version="1.1" xmlns="http://www.w3.org/2000/svg" xmlns:xlink="http://www.w3.org/1999/xlink">
    <!-- Generator: Sketch 46.2 (44496) - http://www.bohemiancoding.com/sketch -->
    <title>icone 04</title>
    <desc>Created with Sketch.</desc>
    <defs></defs>
    <g id="landing-page" stroke="none" stroke-width="1" fill="none" fill-rule="evenodd">
        <g id="768-px/landing" transform="translate(-78.000000, -5408.000000)">
            <g id="MÉTODO" transform="translate(-342.000000, 2924.000000)">
                <g id="04" transform="translate(420.000000, 2484.000000)">
                    <g id="icone-04" transform="translate(0.000000, 0.794476)">
                        <path d="M167.391304,83.8876147 C167.391304,130.217219 129.919239,167.775229 83.6956522,167.775229 C37.4720652,167.775229 0,130.217219 0,83.8876147 C0,37.5580103 37.4720652,0 83.6956522,0 C129.919239,0 167.391304,37.5580103 167.391304,83.8876147 Z" id="Fill-1" fill="#A2F0DE"></path>
                        <path d="M83.6956522,9.21543578 C114.145652,9.21543578 140.329457,27.5250516 151.884022,53.7597592" id="Stroke-3" stroke="#315D79" stroke-width="3" stroke-linejoin="round" stroke-dasharray="5.873"></path>
                        <path d="M36.9412065,25.747168 C37.3710978,25.3994157 37.8047935,25.0562391 38.2430543,24.7176382 C39.7685978,23.5386359 41.3413152,22.4175923 42.958163,21.3575579" id="Stroke-5" stroke="#315D79" stroke-width="3" stroke-linejoin="round" stroke-dasharray="5.873"></path>
                        <path d="M32.7711848,138.392372 C18.2606413,124.767498 9.19411957,105.388697 9.19411957,83.8875384 C9.19411957,64.0488802 16.9131413,46.0168561 29.5047717,32.6444077 C29.9772717,32.1426072 30.4573804,31.6469077 30.9435761,31.1580717" id="Stroke-7" stroke="#315D79" stroke-width="3" stroke-linejoin="round" stroke-dasharray="5.873"></path>
                        <polygon id="Stroke-9" stroke="#315D79" stroke-width="3" stroke-linejoin="round" points="47.285 150.602672 65.286413 150.602672 65.286413 90.1326663 47.285 90.1326663"></polygon>
                        <polygon id="Stroke-11" stroke="#315D79" stroke-width="3" stroke-linejoin="round" points="144.044022 150.602672 162.045435 150.602672 162.045435 90.1326663 144.044022 90.1326663"></polygon>
                        <polygon id="Stroke-12" stroke="#315D79" stroke-width="3" stroke-linejoin="round" points="95.6641304 150.602672 113.665543 150.602672 113.665543 90.1326663 95.6641304 90.1326663"></polygon>
                        <polygon id="Stroke-13" stroke="#315D79" stroke-width="3" stroke-linejoin="round" points="42.3751087 90.1326663 70.1955435 90.1326663 70.1955435 82.3417947 42.3751087 82.3417947"></polygon>
                        <polygon id="Stroke-14" stroke="#315D79" stroke-width="3" stroke-linejoin="round" points="42.3751087 158.393544 70.1955435 158.393544 70.1955435 150.602672 42.3751087 150.602672"></polygon>
                        <polygon id="Stroke-15" stroke="#315D79" stroke-width="3" stroke-linejoin="round" points="90.7542391 90.1326663 118.575435 90.1326663 118.575435 82.3417947 90.7542391 82.3417947"></polygon>
                        <polygon id="Stroke-16" stroke="#315D79" stroke-width="3" stroke-linejoin="round" points="90.7542391 158.393544 118.575435 158.393544 118.575435 150.602672 90.7542391 150.602672"></polygon>
                        <polygon id="Stroke-17" stroke="#315D79" stroke-width="3" stroke-linejoin="round" points="139.13413 90.1326663 166.954565 90.1326663 166.954565 82.3417947 139.13413 82.3417947"></polygon>
                        <polygon id="Stroke-18" stroke="#315D79" stroke-width="3" stroke-linejoin="round" points="139.13413 158.393544 166.954565 158.393544 166.954565 150.602672 139.13413 150.602672"></polygon>
                        <polygon id="Fill-19" fill="#FFFFFF" points="103.744337 35.5942775 34.6010761 82.3417947 172.886837 82.3417947"></polygon>
                        <polygon id="Stroke-20" stroke="#315D79" stroke-width="3" stroke-linejoin="round" points="103.744337 35.5942775 34.6010761 82.3417947 172.886837 82.3417947"></polygon>
                        <polygon id="Fill-21" fill="#FFFFFF" points="38.3858696 162.715281 170.943804 162.715281 170.943804 158.394306 38.3858696 158.394306"></polygon>
                        <polygon id="Stroke-22" stroke="#315D79" stroke-width="3" stroke-linejoin="round" points="38.3858696 162.715281 170.943804 162.715281 170.943804 158.394306 38.3858696 158.394306"></polygon>
                        <polygon id="Fill-23" fill="#FFFFFF" points="34.6013043 167.036256 174.72837 167.036256 174.72837 162.715281 34.6013043 162.715281"></polygon>
                        <polygon id="Stroke-24" stroke="#315D79" stroke-width="3" stroke-linejoin="round" points="34.6013043 167.036256 174.72837 167.036256 174.72837 162.715281 34.6013043 162.715281"></polygon>
                        <path d="M52.7565652,96.2253475 L52.7565652,144.511058" id="Stroke-25" stroke="#315D79" stroke-width="2" stroke-linejoin="round"></path>
                        <path d="M59.814087,96.2253475 L59.814087,144.511058" id="Stroke-26" stroke="#315D79" stroke-width="2" stroke-linejoin="round"></path>
                        <path d="M101.136152,96.2253475 L101.136152,144.511058" id="Stroke-27" stroke="#315D79" stroke-width="2" stroke-linejoin="round"></path>
                        <path d="M108.193674,96.2253475 L108.193674,144.511058" id="Stroke-28" stroke="#315D79" stroke-width="2" stroke-linejoin="round"></path>
                        <path d="M149.515587,96.2253475 L149.515587,144.511058" id="Stroke-29" stroke="#315D79" stroke-width="2" stroke-linejoin="round"></path>
                        <path d="M156.573109,96.2253475 L156.573109,144.511058" id="Stroke-30" stroke="#315D79" stroke-width="2" stroke-linejoin="round"></path>
                        <path d="M157.042413,77.2218286 L102.669913,40.459988" id="Stroke-31" stroke="#F1F1F1" stroke-width="3" stroke-linejoin="round"></path>
                    </g>
                </g>
            </g>
        </g>
    </g>
</svg>