<?xml version="1.0" encoding="UTF-8" standalone="no"?>
<svg width="220px" height="210px" viewBox="0 0 220 210" version="1.1" xmlns="http://www.w3.org/2000/svg" xmlns:xlink="http://www.w3.org/1999/xlink">
    <!-- Generator: Sketch 46.2 (44496) - http://www.bohemiancoding.com/sketch -->
    <title>icone 04</title>
    <desc>Created with Sketch.</desc>
    <defs></defs>
    <g id="landing-page" stroke="none" stroke-width="1" fill="none" fill-rule="evenodd">
        <g id="1440-1024-px/landing-" transform="translate(-286.000000, -5527.000000)">
            <g id="MÉTODO" transform="translate(-195.000000, 2924.000000)">
                <g id="04" transform="translate(481.000000, 2601.000000)">
                    <g id="icone-04" transform="translate(0.000000, 2.000000)">
                        <path d="M208.521739,104.5 C208.521739,162.21345 161.842252,209 104.26087,209 C46.679487,209 0,162.21345 0,104.5 C0,46.78655 46.679487,0 104.26087,0 C161.842252,0 208.521739,46.78655 208.521739,104.5 Z" id="Fill-1" fill="#A2F0DE"></path>
                        <path d="M104.26087,11.4798 C142.19287,11.4798 174.810409,34.28835 189.204096,66.9693" id="Stroke-3" stroke="#315D79" stroke-width="3" stroke-linejoin="round" stroke-dasharray="5.873"></path>
                        <path d="M46.0181887,32.073615 C46.5537104,31.640415 47.0939713,31.212915 47.6399191,30.791115 C49.5403104,29.322415 51.499467,27.925915 53.5135974,26.605415" id="Stroke-5" stroke="#315D79" stroke-width="3" stroke-linejoin="round" stroke-dasharray="5.873"></path>
                        <path d="M40.823533,172.397355 C22.7475417,155.424655 11.4532461,131.284205 11.4532461,104.499905 C11.4532461,79.786605 21.0689417,57.323855 36.7545157,40.665605 C37.3431157,40.040505 37.9411939,39.423005 38.5468548,38.814055" id="Stroke-7" stroke="#315D79" stroke-width="3" stroke-linejoin="round" stroke-dasharray="5.873"></path>
                        <polygon id="Stroke-9" stroke="#315D79" stroke-width="3" stroke-linejoin="round" points="58.9036 187.6079 81.3282174 187.6079 81.3282174 112.27955 58.9036 112.27955"></polygon>
                        <polygon id="Stroke-11" stroke="#315D79" stroke-width="3" stroke-linejoin="round" points="179.437696 187.6079 201.862313 187.6079 201.862313 112.27955 179.437696 112.27955"></polygon>
                        <polygon id="Stroke-12" stroke="#315D79" stroke-width="3" stroke-linejoin="round" points="119.170174 187.6079 141.594791 187.6079 141.594791 112.27955 119.170174 112.27955"></polygon>
                        <polygon id="Stroke-13" stroke="#315D79" stroke-width="3" stroke-linejoin="round" points="52.7872783 112.27955 87.4435913 112.27955 87.4435913 102.57435 52.7872783 102.57435"></polygon>
                        <polygon id="Stroke-14" stroke="#315D79" stroke-width="3" stroke-linejoin="round" points="52.7872783 197.3131 87.4435913 197.3131 87.4435913 187.6079 52.7872783 187.6079"></polygon>
                        <polygon id="Stroke-15" stroke="#315D79" stroke-width="3" stroke-linejoin="round" points="113.053852 112.27955 147.711113 112.27955 147.711113 102.57435 113.053852 102.57435"></polygon>
                        <polygon id="Stroke-16" stroke="#315D79" stroke-width="3" stroke-linejoin="round" points="113.053852 197.3131 147.711113 197.3131 147.711113 187.6079 113.053852 187.6079"></polygon>
                        <polygon id="Stroke-17" stroke="#315D79" stroke-width="3" stroke-linejoin="round" points="173.321374 112.27955 207.977687 112.27955 207.977687 102.57435 173.321374 102.57435"></polygon>
                        <polygon id="Stroke-18" stroke="#315D79" stroke-width="3" stroke-linejoin="round" points="173.321374 197.3131 207.977687 197.3131 207.977687 187.6079 173.321374 187.6079"></polygon>
                        <polygon id="Fill-19" fill="#FFFFFF" points="129.235803 44.3403 43.1030548 102.57435 215.367603 102.57435"></polygon>
                        <polygon id="Stroke-20" stroke="#315D79" stroke-width="3" stroke-linejoin="round" points="129.235803 44.3403 43.1030548 102.57435 215.367603 102.57435"></polygon>
                        <polygon id="Fill-21" fill="#FFFFFF" points="47.8178261 202.69675 212.947139 202.69675 212.947139 197.31405 47.8178261 197.31405"></polygon>
                        <polygon id="Stroke-22" stroke="#315D79" stroke-width="3" stroke-linejoin="round" points="47.8178261 202.69675 212.947139 202.69675 212.947139 197.31405 47.8178261 197.31405"></polygon>
                        <polygon id="Fill-23" fill="#FFFFFF" points="43.1033391 208.07945 217.661626 208.07945 217.661626 202.69675 43.1033391 202.69675"></polygon>
                        <polygon id="Stroke-24" stroke="#315D79" stroke-width="3" stroke-linejoin="round" points="43.1033391 208.07945 217.661626 208.07945 217.661626 202.69675 43.1033391 202.69675"></polygon>
                        <path d="M65.719607,119.86929 L65.719607,180.01949" id="Stroke-25" stroke="#315D79" stroke-width="2" stroke-linejoin="round"></path>
                        <path d="M74.5112626,119.86929 L74.5112626,180.01949" id="Stroke-26" stroke="#315D79" stroke-width="2" stroke-linejoin="round"></path>
                        <path d="M125.98675,119.86929 L125.98675,180.01949" id="Stroke-27" stroke="#315D79" stroke-width="2" stroke-linejoin="round"></path>
                        <path d="M134.778405,119.86929 L134.778405,180.01949" id="Stroke-28" stroke="#315D79" stroke-width="2" stroke-linejoin="round"></path>
                        <path d="M186.253703,119.86929 L186.253703,180.01949" id="Stroke-29" stroke="#315D79" stroke-width="2" stroke-linejoin="round"></path>
                        <path d="M195.045358,119.86929 L195.045358,180.01949" id="Stroke-30" stroke="#315D79" stroke-width="2" stroke-linejoin="round"></path>
                        <path d="M195.629977,96.196335 L127.897377,50.401585" id="Stroke-31" stroke="#F1F1F1" stroke-width="3" stroke-linejoin="round"></path>
                    </g>
                </g>
            </g>
        </g>
    </g>
</svg>