<?xml version="1.0" encoding="UTF-8" standalone="no"?>
<svg width="126px" height="124px" viewBox="0 0 126 124" version="1.1" xmlns="http://www.w3.org/2000/svg" xmlns:xlink="http://www.w3.org/1999/xlink">
    <!-- Generator: Sketch 46.2 (44496) - http://www.bohemiancoding.com/sketch -->
    <title>icone 04</title>
    <desc>Created with Sketch.</desc>
    <defs></defs>
    <g id="landing-page" stroke="none" stroke-width="1" fill="none" fill-rule="evenodd">
        <g id="360-320px/landing" transform="translate(-114.000000, -4114.000000)">
            <g id="MÉTODO" transform="translate(-171.000000, 2344.000000)">
                <g id="04" transform="translate(203.000000, 1770.000000)">
                    <g id="icone-04" transform="translate(82.000000, 0.000000)">
                        <path d="M119.147443,61.6884171 C119.147443,95.7578083 92.4752045,123.376834 59.5737213,123.376834 C26.6722382,123.376834 0,95.7578083 0,61.6884171 C0,27.6190259 26.6722382,0 59.5737213,0 C92.4752045,0 119.147443,27.6190259 119.147443,61.6884171 Z" id="Fill-1" fill="#A2F0DE"></path>
                        <path d="M59.5737213,6.77675302 C81.2477243,6.77675302 99.8850923,20.2410913 108.109515,39.5333025" id="Stroke-3" stroke="#315D79" stroke-width="2" stroke-linejoin="round" stroke-dasharray="5.873"></path>
                        <path d="M26.2943783,18.9336894 C26.6003706,18.6779629 26.9090708,18.4256011 27.2210205,18.1766043 C28.306887,17.3096016 29.4263313,16.48522 30.5771873,15.7057028" id="Stroke-5" stroke="#315D79" stroke-width="2" stroke-linejoin="round" stroke-dasharray="5.873"></path>
                        <path d="M23.3261989,101.769569 C12.9977404,91.7502483 6.5442816,77.4996631 6.5442816,61.688361 C6.5442816,47.0996112 12.0386035,33.8394055 21.001199,24.005711 C21.3375198,23.6367021 21.6792563,23.2721797 22.0253255,22.9127044" id="Stroke-7" stroke="#315D79" stroke-width="2" stroke-linejoin="round" stroke-dasharray="5.873"></path>
                        <polygon id="Stroke-9" stroke="#315D79" stroke-width="3" stroke-linejoin="round" points="33.6569862 110.748654 46.4702105 110.748654 46.4702105 66.2808394 33.6569862 66.2808394"></polygon>
                        <polygon id="Stroke-11" stroke="#315D79" stroke-width="3" stroke-linejoin="round" points="102.529082 110.748654 115.342307 110.748654 115.342307 66.2808394 102.529082 66.2808394"></polygon>
                        <polygon id="Stroke-12" stroke="#315D79" stroke-width="3" stroke-linejoin="round" points="68.0927635 110.748654 80.9059878 110.748654 80.9059878 66.2808394 68.0927635 66.2808394"></polygon>
                        <polygon id="Stroke-13" stroke="#315D79" stroke-width="3" stroke-linejoin="round" points="30.1621751 66.2808394 49.9644801 66.2808394 49.9644801 60.5516678 30.1621751 60.5516678"></polygon>
                        <polygon id="Stroke-14" stroke="#315D79" stroke-width="3" stroke-linejoin="round" points="30.1621751 116.477826 49.9644801 116.477826 49.9644801 110.748654 30.1621751 110.748654"></polygon>
                        <polygon id="Stroke-15" stroke="#315D79" stroke-width="3" stroke-linejoin="round" points="64.5979524 66.2808394 84.4007989 66.2808394 84.4007989 60.5516678 64.5979524 60.5516678"></polygon>
                        <polygon id="Stroke-16" stroke="#315D79" stroke-width="3" stroke-linejoin="round" points="64.5979524 116.477826 84.4007989 116.477826 84.4007989 110.748654 64.5979524 110.748654"></polygon>
                        <polygon id="Stroke-17" stroke="#315D79" stroke-width="3" stroke-linejoin="round" points="99.0342712 66.2808394 118.836576 66.2808394 118.836576 60.5516678 99.0342712 60.5516678"></polygon>
                        <polygon id="Stroke-18" stroke="#315D79" stroke-width="3" stroke-linejoin="round" points="99.0342712 116.477826 118.836576 116.477826 118.836576 110.748654 99.0342712 110.748654"></polygon>
                        <polygon id="Fill-19" fill="#FFFFFF" points="73.844173 26.1749562 24.6286971 60.5516678 123.059107 60.5516678"></polygon>
                        <polygon id="Stroke-20" stroke="#315D79" stroke-width="3" stroke-linejoin="round" points="73.844173 26.1749562 24.6286971 60.5516678 123.059107 60.5516678"></polygon>
                        <polygon id="Fill-21" fill="#FFFFFF" points="27.3226749 119.655901 121.676076 119.655901 121.676076 116.478387 27.3226749 116.478387"></polygon>
                        <polygon id="Stroke-22" stroke="#315D79" stroke-width="2" stroke-linejoin="round" points="27.3226749 119.655901 121.676076 119.655901 121.676076 116.478387 27.3226749 116.478387"></polygon>
                        <polygon id="Fill-23" fill="#FFFFFF" points="24.6288596 122.833415 124.369892 122.833415 124.369892 119.655901 24.6288596 119.655901"></polygon>
                        <polygon id="Stroke-24" stroke="#315D79" stroke-width="2" stroke-linejoin="round" points="24.6288596 122.833415 124.369892 122.833415 124.369892 119.655901 24.6288596 119.655901"></polygon>
                        <path d="M37.5515912,70.761213 L37.5515912,106.269066" id="Stroke-25" stroke="#315D79" stroke-linejoin="round"></path>
                        <path d="M42.575064,70.761213 L42.575064,106.269066" id="Stroke-26" stroke="#315D79" stroke-linejoin="round"></path>
                        <path d="M71.9876934,70.761213 L71.9876934,106.269066" id="Stroke-27" stroke="#315D79" stroke-linejoin="round"></path>
                        <path d="M77.0111662,70.761213 L77.0111662,106.269066" id="Stroke-28" stroke="#315D79" stroke-linejoin="round"></path>
                        <path d="M106.423687,70.761213 L106.423687,106.269066" id="Stroke-29" stroke="#315D79" stroke-linejoin="round"></path>
                        <path d="M111.44716,70.761213 L111.44716,106.269066" id="Stroke-30" stroke="#315D79" stroke-linejoin="round"></path>
                        <path d="M111.781206,56.7865994 L73.0794089,29.7530526" id="Stroke-31" stroke="#F1F1F1" stroke-width="3" stroke-linejoin="round"></path>
                    </g>
                </g>
            </g>
        </g>
    </g>
</svg>