<?xml version="1.0" encoding="UTF-8" standalone="no"?>
<svg width="206px" height="217px" viewBox="0 0 206 217" version="1.1" xmlns="http://www.w3.org/2000/svg" xmlns:xlink="http://www.w3.org/1999/xlink">
    <!-- Generator: Sketch 46.2 (44496) - http://www.bohemiancoding.com/sketch -->
    <title>icone 02</title>
    <desc>Created with Sketch.</desc>
    <defs></defs>
    <g id="landing-page" stroke="none" stroke-width="1" fill="none" fill-rule="evenodd">
        <g id="1440-1024-px/landing-" transform="translate(-299.000000, -4446.000000)">
            <g id="MÉTODO" transform="translate(-195.000000, 2924.000000)">
                <g id="02" transform="translate(494.000000, 1522.000000)">
                    <g id="icone-02">
                        <polygon id="Fill-1" fill="#A2F0DE" points="0.350590796 153.298415 193.781095 153.298415 193.781095 0.916316853 0.350590796 0.916316853"></polygon>
                        <polyline id="Fill-1" fill="#A2F0DE" points="0.350590796 164.38075 193.781095 164.38075 193.781095 185.621891 0.350590796 185.621891"></polyline>
                        <g id="Group-24" transform="translate(44.875622, 17.338308)">
                            <polygon id="Stroke-2" stroke="#315D79" stroke-width="3" stroke-linejoin="round" points="126.005443 25.5208682 27.8532786 25.5208682 27.8532786 197.857535 159.624423 197.857535 159.624423 56.7094254"></polygon>
                            <polygon id="Fill-4" fill="#FFFFFF" points="126.005443 56.7082015 159.624423 56.7082015 126.006463 25.5206642"></polygon>
                            <polygon id="Stroke-5" stroke="#315D79" stroke-width="3" stroke-linejoin="round" points="126.005443 56.7082015 159.624423 56.7082015 126.006463 25.5206642"></polygon>
                            <polygon id="Fill-7" fill="#FFFFFF" points="44.1137562 140.407662 83.6471393 140.407662 83.6471393 93.2923383 44.1137562 93.2923383"></polygon>
                            <polygon id="Stroke-8" stroke="#315D79" stroke-width="3" stroke-linejoin="round" points="44.1137562 140.407662 83.6471393 140.407662 83.6471393 93.2923383 44.1137562 93.2923383"></polygon>
                            <path d="M66.7286219,48.6797488 C66.7286219,55.6701468 61.0620547,61.3367139 54.0706368,61.3367139 C47.0802388,61.3367139 41.4136716,55.6701468 41.4136716,48.6797488 C41.4136716,41.6883308 47.0802388,36.0217637 54.0706368,36.0217637 C61.0620547,36.0217637 66.7286219,41.6883308 66.7286219,48.6797488" id="Fill-9" fill="#FFFFFF"></path>
                            <path d="M66.7286219,48.6797488 C66.7286219,55.6701468 61.0620547,61.3367139 54.0706368,61.3367139 C47.0802388,61.3367139 41.4136716,55.6701468 41.4136716,48.6797488 C41.4136716,41.6883308 47.0802388,36.0217637 54.0706368,36.0217637 C61.0620547,36.0217637 66.7286219,41.6883308 66.7286219,48.6797488 Z" id="Stroke-11" stroke="#315D79" stroke-width="3" stroke-linejoin="round"></path>
                            <path d="M79.878097,39.9800995 L100.24245,39.9800995" id="Stroke-13" stroke="#315D79" stroke-width="2"></path>
                            <path d="M79.878097,49.1326866 L106.961555,49.1326866" id="Stroke-15" stroke="#315D79" stroke-width="2"></path>
                            <path d="M43.9615871,77.7798557 L137.582333,77.7798557" id="Stroke-17" stroke="#315D79" stroke-width="2"></path>
                            <path d="M93.6075896,108.947199 L137.582639,108.947199" id="Stroke-19" stroke="#315D79" stroke-width="2"></path>
                            <path d="M93.6075896,95.478699 L137.582639,95.478699" id="Stroke-21" stroke="#315D79" stroke-width="2"></path>
                            <path d="M93.6075896,123.145336 L137.582639,123.145336" id="Stroke-23" stroke="#315D79" stroke-width="2"></path>
                            <path d="M93.6075896,138.366127 L137.582639,138.366127" id="Stroke-25" stroke="#315D79" stroke-width="2"></path>
                            <path d="M43.9615871,156.570841 L114.194995,156.570841" id="Stroke-27" stroke="#315D79" stroke-width="2"></path>
                            <path d="M80.5163507,59.531694 L88.703092,59.531694" id="Stroke-29" stroke="#315D79" stroke-width="2"></path>
                            <path d="M93.1733159,59.7581119 L101.360057,59.7581119" id="Stroke-31" stroke="#315D79" stroke-width="2"></path>
                            <polyline id="Stroke-33" stroke="#315D79" stroke-width="3" stroke-linejoin="round" stroke-dasharray="5.873" points="0.679967662 126.467254 0.679967662 -0.000407960199 84.9920821 -0.000407960199"></polyline>
                        </g>
                    </g>
                </g>
            </g>
        </g>
    </g>
</svg>