<?xml version="1.0" encoding="UTF-8" standalone="no"?>
<svg width="171px" height="179px" viewBox="0 0 171 179" version="1.1" xmlns="http://www.w3.org/2000/svg" xmlns:xlink="http://www.w3.org/1999/xlink">
    <!-- Generator: Sketch 46.2 (44496) - http://www.bohemiancoding.com/sketch -->
    <title>icone 02</title>
    <desc>Created with Sketch.</desc>
    <defs></defs>
    <g id="landing-page" stroke="none" stroke-width="1" fill="none" fill-rule="evenodd">
        <g id="768-px/landing" transform="translate(-78.000000, -4269.000000)">
            <g id="MÉTODO" transform="translate(-342.000000, 2924.000000)">
                <g id="02" transform="translate(420.000000, 1345.000000)">
                    <g id="icone-02">
                        <polygon id="Fill-1" fill="#A2F0DE" points="0.288912786 126.32925 159.689976 126.32925 159.689976 0.755112962 0.288912786 0.755112962"></polygon>
                        <polyline id="Fill-1" fill="#A2F0DE" points="0.288912786 135.461914 159.689976 135.461914 159.689976 152.966188 0.288912786 152.966188"></polyline>
                        <g id="Group-24" transform="translate(36.980837, 14.288050)">
                            <polygon id="Stroke-2" stroke="#315D79" stroke-width="3" stroke-linejoin="round" points="103.837819 21.0310858 22.9531648 21.0310858 22.9531648 163.049265 131.542348 163.049265 131.542348 46.7327672"></polygon>
                            <polygon id="Fill-4" fill="#FFFFFF" points="103.837819 46.7317586 131.542348 46.7317586 103.838659 21.0309177"></polygon>
                            <polygon id="Stroke-5" stroke="#315D79" stroke-width="3" stroke-linejoin="round" points="103.837819 46.7317586 131.542348 46.7317586 103.838659 21.0309177"></polygon>
                            <polygon id="Fill-7" fill="#FFFFFF" points="36.3530028 115.706314 68.9314389 115.706314 68.9314389 76.8797973 36.3530028 76.8797973"></polygon>
                            <polygon id="Stroke-8" stroke="#315D79" stroke-width="3" stroke-linejoin="round" points="36.3530028 115.706314 68.9314389 115.706314 68.9314389 76.8797973 36.3530028 76.8797973"></polygon>
                            <path d="M54.9893273,40.1157189 C54.9893273,45.8763246 50.3196562,50.5459957 44.55821,50.5459957 C38.7976042,50.5459957 34.1279331,45.8763246 34.1279331,40.1157189 C34.1279331,34.3542726 38.7976042,29.6846016 44.55821,29.6846016 C50.3196562,29.6846016 54.9893273,34.3542726 54.9893273,40.1157189" id="Fill-9" fill="#FFFFFF"></path>
                            <path d="M54.9893273,40.1157189 C54.9893273,45.8763246 50.3196562,50.5459957 44.55821,50.5459957 C38.7976042,50.5459957 34.1279331,45.8763246 34.1279331,40.1157189 C34.1279331,34.3542726 38.7976042,29.6846016 44.55821,29.6846016 C50.3196562,29.6846016 54.9893273,34.3542726 54.9893273,40.1157189 Z" id="Stroke-11" stroke="#315D79" stroke-width="3" stroke-linejoin="round"></path>
                            <path d="M65.8254688,32.9465635 L82.6072044,32.9465635" id="Stroke-13" stroke="#315D79" stroke-width="2"></path>
                            <path d="M65.8254688,40.4889732 L88.1442442,40.4889732" id="Stroke-15" stroke="#315D79" stroke-width="2"></path>
                            <path d="M36.2276042,64.0963626 L113.378034,64.0963626" id="Stroke-17" stroke="#315D79" stroke-width="2"></path>
                            <path d="M77.1395877,89.7805621 L113.378286,89.7805621" id="Stroke-19" stroke="#315D79" stroke-width="2"></path>
                            <path d="M77.1395877,78.6815205 L113.378286,78.6815205" id="Stroke-21" stroke="#315D79" stroke-width="2"></path>
                            <path d="M77.1395877,101.480879 L113.378286,101.480879" id="Stroke-23" stroke="#315D79" stroke-width="2"></path>
                            <path d="M77.1395877,114.023938 L113.378286,114.023938" id="Stroke-25" stroke="#315D79" stroke-width="2"></path>
                            <path d="M36.2276042,129.025971 L94.1051348,129.025971" id="Stroke-27" stroke="#315D79" stroke-width="2"></path>
                            <path d="M66.3514372,49.0585256 L73.0979184,49.0585256" id="Stroke-29" stroke="#315D79" stroke-width="2"></path>
                            <path d="M76.781714,49.2451108 L83.5281953,49.2451108" id="Stroke-31" stroke="#315D79" stroke-width="2"></path>
                            <polyline id="Stroke-33" stroke="#315D79" stroke-width="3" stroke-linejoin="round" stroke-dasharray="5.873" points="0.560343721 104.218385 0.560343721 -0.000336189423 70.0397714 -0.000336189423"></polyline>
                        </g>
                    </g>
                </g>
            </g>
        </g>
    </g>
</svg>