<?xml version="1.0" encoding="UTF-8" standalone="no"?>
<svg width="108px" height="113px" viewBox="0 0 108 113" version="1.1" xmlns="http://www.w3.org/2000/svg" xmlns:xlink="http://www.w3.org/1999/xlink">
    <!-- Generator: Sketch 46.2 (44496) - http://www.bohemiancoding.com/sketch -->
    <title>icone 02</title>
    <desc>Created with Sketch.</desc>
    <defs></defs>
    <g id="landing-page" stroke="none" stroke-width="1" fill="none" fill-rule="evenodd">
        <g id="360-320px/landing" transform="translate(-127.000000, -3237.000000)">
            <g id="MÉTODO" transform="translate(-171.000000, 2344.000000)">
                <g id="02" transform="translate(204.000000, 893.000000)">
                    <g id="icone-02" transform="translate(94.000000, 0.000000)">
                        <polygon id="Fill-1" fill="#A2F0DE" points="0.18121157 78.9700098 100.160577 78.9700098 100.160577 0.472030652 0.18121157 0.472030652"></polygon>
                        <polyline id="Fill-1" fill="#A2F0DE" points="0.18121157 84.6789537 100.160577 84.6789537 100.160577 95.6210963 0.18121157 95.6210963"></polyline>
                        <g id="Group-24" transform="translate(23.195081, 8.931641)">
                            <polygon id="Stroke-2" stroke="#315D79" stroke-width="3" stroke-linejoin="round" points="65.129046 13.1467974 14.3966596 13.1467974 14.3966596 101.924155 82.5058517 101.924155 82.5058517 29.2132432"></polygon>
                            <polygon id="Fill-4" fill="#FFFFFF" points="65.129046 29.2126127 82.5058517 29.2126127 65.1295731 13.1466923"></polygon>
                            <polygon id="Stroke-5" stroke="#315D79" stroke-width="3" stroke-linejoin="round" points="65.129046 29.2126127 82.5058517 29.2126127 65.1295731 13.1466923"></polygon>
                            <polygon id="Fill-7" fill="#FFFFFF" points="22.8012917 72.3294785 43.2351037 72.3294785 43.2351037 48.0585325 22.8012917 48.0585325"></polygon>
                            <polygon id="Stroke-8" stroke="#315D79" stroke-width="3" stroke-linejoin="round" points="22.8012917 72.3294785 43.2351037 72.3294785 43.2351037 48.0585325 22.8012917 48.0585325"></polygon>
                            <path d="M34.4903473,25.0768427 C34.4903473,28.6778701 31.5614412,31.5969405 27.947753,31.5969405 C24.334592,31.5969405 21.4056859,28.6778701 21.4056859,25.0768427 C21.4056859,21.4752898 24.334592,18.5562194 27.947753,18.5562194 C31.5614412,18.5562194 34.4903473,21.4752898 34.4903473,25.0768427" id="Fill-9" fill="#FFFFFF"></path>
                            <path d="M34.4903473,25.0768427 C34.4903473,28.6778701 31.5614412,31.5969405 27.947753,31.5969405 C24.334592,31.5969405 21.4056859,28.6778701 21.4056859,25.0768427 C21.4056859,21.4752898 24.334592,18.5562194 27.947753,18.5562194 C31.5614412,18.5562194 34.4903473,21.4752898 34.4903473,25.0768427 Z" id="Stroke-11" stroke="#315D79" stroke-width="3" stroke-linejoin="round"></path>
                            <path d="M41.2869805,20.595313 L51.8128027,20.595313" id="Stroke-13" stroke="#315D79" stroke-width="2"></path>
                            <path d="M41.2869805,25.3101686 L55.2857389,25.3101686" id="Stroke-15" stroke="#315D79" stroke-width="2"></path>
                            <path d="M22.7226393,40.067446 L71.1128497,40.067446" id="Stroke-17" stroke="#315D79" stroke-width="2"></path>
                            <path d="M48.38341,56.1229636 L71.1130078,56.1229636" id="Stroke-19" stroke="#315D79" stroke-width="2"></path>
                            <path d="M48.38341,49.1848124 L71.1130078,49.1848124" id="Stroke-21" stroke="#315D79" stroke-width="2"></path>
                            <path d="M48.38341,63.4369792 L71.1130078,63.4369792" id="Stroke-23" stroke="#315D79" stroke-width="2"></path>
                            <path d="M48.38341,71.277804 L71.1130078,71.277804" id="Stroke-25" stroke="#315D79" stroke-width="2"></path>
                            <path d="M22.7226393,80.6557642 L59.0245224,80.6557642" id="Stroke-27" stroke="#315D79" stroke-width="2"></path>
                            <path d="M41.6168778,30.6671041 L45.8483985,30.6671041" id="Stroke-29" stroke="#315D79" stroke-width="2"></path>
                            <path d="M48.1589449,30.7837408 L52.3904657,30.7837408" id="Stroke-31" stroke="#315D79" stroke-width="2"></path>
                            <polyline id="Stroke-33" stroke="#315D79" stroke-width="3" stroke-linejoin="round" stroke-dasharray="5.873" points="0.351458192 65.1482291 0.351458192 -0.000210156255 43.9302708 -0.000210156255"></polyline>
                        </g>
                    </g>
                </g>
            </g>
        </g>
    </g>
</svg>