<?xml version="1.0" encoding="UTF-8" standalone="no"?>
<svg width="113px" height="115px" viewBox="0 0 113 115" version="1.1" xmlns="http://www.w3.org/2000/svg" xmlns:xlink="http://www.w3.org/1999/xlink">
    <!-- Generator: Sketch 46.2 (44496) - http://www.bohemiancoding.com/sketch -->
    <title>icone 03</title>
    <desc>Created with Sketch.</desc>
    <defs></defs>
    <g id="landing-page" stroke="none" stroke-width="1" fill="none" fill-rule="evenodd">
        <g id="360-320px/landing" transform="translate(-185.000000, -3745.000000)">
            <g id="MÉTODO" transform="translate(-171.000000, 2344.000000)">
                <g id="03" transform="translate(204.000000, 1401.000000)">
                    <g id="icone-03" transform="translate(152.000000, 0.000000)">
                        <polygon id="Fill-1" fill="#FCE2B1" points="0.985132266 0 112.090275 114.787895 112.090275 0"></polygon>
                        <path d="M40.1680069,89.1951894 L41.8397278,89.1951894" id="Stroke-2" stroke="#315D79" stroke-width="3" stroke-linejoin="round"></path>
                        <g id="Group-25" transform="translate(0.000000, 5.314254)" stroke-linejoin="round">
                            <path d="M24.9937706,100.548828 L67.8062856,100.548828 C69.1848123,100.548828 70.3020363,101.703084 70.3020363,103.126773 L70.3020363,106.747906 L7.54769126,106.747906 L7.54769126,103.126773 C7.54769126,101.703084 8.6649152,100.548828 10.0429276,100.548828 L24.9937706,100.548828" id="Stroke-3" stroke="#315D79" stroke-width="3"></path>
                            <path d="M46.2117151,83.8809351 L48.7835934,83.8809351 L56.7481862,83.8809351 C58.7413919,83.8809351 60.3575602,85.7106328 60.3575602,87.9644081 C60.3575602,90.2219034 58.7413919,92.0457555 56.7481862,92.0457555 L21.1009241,92.0457555 C19.1072041,92.0457555 17.4920645,90.2219034 17.4920645,87.9644081 C17.4920645,85.7106328 19.1072041,83.8809351 21.1009241,83.8809351 L37.0820615,83.8809351" id="Stroke-5" stroke="#315D79" stroke-width="3"></path>
                            <polyline id="Stroke-7" stroke="#315D79" stroke-width="3" points="62.3289564 100.296773 62.3289564 95.5894066 57.8708625 91.9709308"></polyline>
                            <polyline id="Stroke-9" stroke="#315D79" stroke-width="3" points="19.9784021 91.9707714 15.5203083 95.5897786 15.5203083 100.296614"></polyline>
                            <path d="M39.9964112,49.532677 L38.3344634,51.1981644 C39.3858472,53.6177444 40.7309396,55.9480449 42.3774561,58.1348606 C45.5917896,62.4053954 49.5998047,65.6625019 54.0198348,67.8567576 L54.0198348,84.4122542" id="Stroke-11" stroke="#315D79" stroke-width="3"></path>
                            <path d="M14.7935469,55.6929076 C14.7518825,63.9879272 17.7939001,72.1277707 23.9195999,78.4565162 C25.0059613,79.5788867 26.1519902,80.6008178 27.3479136,81.5223095" id="Stroke-13" stroke="#F1F1F1" stroke-width="2"></path>
                            <path d="M18.0496991,97.3076923 L59.8864435,97.3076923" id="Stroke-15" stroke="#F1F1F1" stroke-width="2"></path>
                            <path d="M59.8856205,46.8755499 L40.8537211,26.1499578" id="Stroke-17" stroke="#FFFFFF"></path>
                            <path d="M35.6865604,43.46247 C39.9059839,54.2073609 49.7696516,49.8868721 49.7696516,49.8868721 L50.2840272,52.5439993 C52.2216804,54.5368447 56.6391385,55.3972225 58.5140378,53.3411374 L62.8965185,48.5365201 C63.7102608,47.6442568 63.7071745,46.2503278 62.8888028,45.3617845 L42.3909327,23.0993101 L44.443806,15.6094 C36.9961608,15.9643921 27.0152155,21.2021213 21.7670406,26.624255 C20.8072156,27.6158949 19.912202,28.6484545 19.0809709,29.7166196 L18.8150387,30.0838346 L21.5684916,33.0560971 C20.7012542,34.2417072 19.9127163,35.4910884 19.2008204,36.790955 L16.0044901,34.3612779 L13.7525534,39.0697073 L17.3536974,40.7405089 C16.8789287,41.9521589 16.4705144,43.1978201 16.1320552,44.474304 L12.3025284,43.4916984 L11.3200709,48.6518394 L15.2535016,48.9887631 C15.0847864,50.315201 14.9880838,51.6650216 14.9731669,53.0355678 L11.0196755,53.4298855 L11.0207043,53.4298855 C10.9713242,63.197485 14.5534363,72.7822742 21.7670406,80.2349846 C23.0457785,81.5561082 24.3955002,82.7592554 25.8038608,83.8449576" id="Stroke-19" stroke="#315D79" stroke-width="3"></path>
                            <polyline id="Stroke-21" stroke="#315D79" stroke-width="2" stroke-dasharray="5.873" points="105.328756 66.449915 105.328756 0.553160738 82.55323 0.553160738"></polyline>
                            <path d="M28.5464089,0 L0.000102875132,0" id="Stroke-23" stroke="#315D79" stroke-width="2" stroke-dasharray="5.873"></path>
                        </g>
                    </g>
                </g>
            </g>
        </g>
    </g>
</svg>