<?xml version="1.0" encoding="UTF-8" standalone="no"?>
<svg width="209px" height="207px" viewBox="0 0 209 207" version="1.1" xmlns="http://www.w3.org/2000/svg" xmlns:xlink="http://www.w3.org/1999/xlink">
    <!-- Generator: Sketch 46.2 (44496) - http://www.bohemiancoding.com/sketch -->
    <title>icone 03</title>
    <desc>Created with Sketch.</desc>
    <defs></defs>
    <g id="landing-page" stroke="none" stroke-width="1" fill="none" fill-rule="evenodd">
        <g id="1440-1024-px/landing-" transform="translate(-906.000000, -5014.000000)">
            <g id="MÉTODO" transform="translate(-195.000000, 2924.000000)">
                <g id="03" transform="translate(515.000000, 2090.000000)">
                    <g id="icone-03" transform="translate(586.000000, 0.000000)">
                        <polygon id="Fill-1" fill="#FCE2B1" points="1.83613211 0 208.918701 207 208.918701 0"></polygon>
                        <path d="M74.8668679,160.848008 L77.9826936,160.848008" id="Stroke-2" stroke="#315D79" stroke-width="3" stroke-linejoin="round"></path>
                        <g id="Group-25" transform="translate(0.000000, 9.583333)" stroke-width="3" stroke-linejoin="round">
                            <path d="M46.5844702,181.322321 L126.380287,181.322321 C128.949644,181.322321 131.031975,183.403821 131.031975,185.971196 L131.031975,192.501279 L14.0677133,192.501279 L14.0677133,185.971196 C14.0677133,183.403821 16.1500436,181.322321 18.7184427,181.322321 L46.5844702,181.322321" id="Stroke-3" stroke="#315D79"></path>
                            <path d="M86.1313927,151.264675 L90.9249706,151.264675 L105.769723,151.264675 C109.484746,151.264675 112.49703,154.564217 112.49703,158.628508 C112.49703,162.699508 109.484746,165.988508 105.769723,165.988508 L39.3288147,165.988508 C35.612833,165.988508 32.6024661,162.699508 32.6024661,158.628508 C32.6024661,154.564217 35.612833,151.264675 39.3288147,151.264675 L69.1151495,151.264675" id="Stroke-5" stroke="#315D79"></path>
                            <polyline id="Stroke-7" stroke="#315D79" points="116.171404 180.867783 116.171404 172.378867 107.862216 165.853575"></polyline>
                            <polyline id="Stroke-9" stroke="#315D79" points="37.2366096 165.853288 28.9274216 172.379538 28.9274216 180.867496"></polyline>
                            <path d="M74.5470404,89.3235667 L71.4494303,92.3269833 C73.409045,96.690275 75.9160862,100.892567 78.9849349,104.836108 C84.9759486,112.537275 92.4462606,118.4109 100.684504,122.367858 L100.684504,152.222817" id="Stroke-11" stroke="#315D79"></path>
                            <path d="M27.5728523,100.432471 C27.4951963,115.391096 33.1650404,130.069887 44.5823844,141.482679 C46.6071917,143.506679 48.7432101,145.349554 50.9722239,147.011304" id="Stroke-13" stroke="#F1F1F1"></path>
                            <path d="M33.6418096,175.892979 L111.618943,175.892979" id="Stroke-15" stroke="#F1F1F1"></path>
                            <path d="M111.617409,84.5319 L76.1449317,47.1569" id="Stroke-17" stroke="#FFFFFF"></path>
                            <path d="M66.5141541,78.3770042 C74.3784982,97.7535458 92.7628284,89.9622958 92.7628284,89.9622958 L93.721544,94.7539625 C97.3330257,98.3477125 105.566475,99.8992542 109.060994,96.1914625 L117.22925,87.5271708 C118.745939,85.9181292 118.740186,83.4044208 117.21487,81.8020875 L79.0100532,41.6555875 L82.8362872,28.1488375 C68.955044,28.7890042 50.3521266,38.2343375 40.5703514,48.0122125 C38.7813881,49.8004625 37.1132229,51.6625042 35.5639385,53.5887542 L35.0682826,54.2509625 L40.2002872,59.6109208 C38.5838927,61.7489625 37.1141817,64.0020042 35.7873193,66.3460875 L29.8298606,61.9645875 L25.6326037,70.4554208 L32.3445716,73.4684208 C31.4596771,75.6534208 30.6984569,77.8997542 30.067622,80.2016708 L22.9299844,78.4297125 L21.0988376,87.7351292 L28.4301358,88.3427125 C28.1156771,90.7347125 27.9354385,93.1688792 27.9076358,95.6404208 L20.5389477,96.3515042 L20.5408651,96.3515042 C20.4488284,113.965671 27.1253239,131.250171 40.5703514,144.689837 C42.9537183,147.072254 45.4693881,149.241921 48.0943514,151.199796" id="Stroke-19" stroke="#315D79"></path>
                            <polyline id="Stroke-21" stroke="#315D79" stroke-dasharray="5.873" points="196.316289 119.830863 196.316289 0.997529167 153.866279 0.997529167"></polyline>
                            <path d="M53.2060312,0.590429167 L0.000191743119,0.590429167" id="Stroke-23" stroke="#315D79" stroke-dasharray="5.873"></path>
                        </g>
                    </g>
                </g>
            </g>
        </g>
    </g>
</svg>