<?xml version="1.0" encoding="UTF-8" standalone="no"?>
<svg width="199px" height="198px" viewBox="0 0 199 198" version="1.1" xmlns="http://www.w3.org/2000/svg" xmlns:xlink="http://www.w3.org/1999/xlink">
    <!-- Generator: Sketch 46.2 (44496) - http://www.bohemiancoding.com/sketch -->
    <title>icone 03</title>
    <desc>Created with Sketch.</desc>
    <defs></defs>
    <g id="landing-page" stroke="none" stroke-width="1" fill="none" fill-rule="evenodd">
        <g id="768-px/landing" transform="translate(-491.000000, -4931.000000)">
            <g id="MÉTODO" transform="translate(-342.000000, 2924.000000)">
                <g id="03" transform="translate(417.000000, 2007.000000)">
                    <g id="icone-03" transform="translate(416.000000, 0.166432)">
                        <polygon id="Fill-1" fill="#FCE2B1" points="1.7482789 0 198.922591 197.095694 198.922591 0"></polygon>
                        <path d="M71.2847211,153.151931 L74.2514642,153.151931" id="Stroke-2" stroke="#315D79" stroke-width="3" stroke-linejoin="round"></path>
                        <g id="Group-25" transform="translate(0.000000, 9.124801)" stroke-width="3" stroke-linejoin="round">
                            <path d="M44.3555482,172.646612 L120.333383,172.646612 C122.779805,172.646612 124.762502,174.628518 124.762502,177.073052 L124.762502,183.290692 L13.394617,183.290692 L13.394617,177.073052 C13.394617,174.628518 15.3773142,172.646612 17.8228234,172.646612 L44.3555482,172.646612" id="Stroke-3" stroke="#315D79"></path>
                            <path d="M82.0102734,144.027131 L86.5744936,144.027131 L100.708971,144.027131 C104.246241,144.027131 107.114397,147.1688 107.114397,151.038628 C107.114397,154.914843 104.246241,158.046474 100.708971,158.046474 L37.4470532,158.046474 C33.9088697,158.046474 31.0425394,154.914843 31.0425394,151.038628 C31.0425394,147.1688 33.9088697,144.027131 37.4470532,144.027131 L65.8082046,144.027131" id="Stroke-5" stroke="#315D79"></path>
                            <polyline id="Stroke-7" stroke="#315D79" points="110.612963 172.213822 110.612963 164.131074 102.701344 157.917997"></polyline>
                            <polyline id="Stroke-9" stroke="#315D79" points="35.4549537 157.917724 27.5433344 164.131713 27.5433344 172.213549"></polyline>
                            <path d="M70.9801963,85.0497118 L68.0307972,87.9094243 C69.8966505,92.0639461 72.2837376,96.0651711 75.2057514,99.8200266 C80.9101138,107.152716 88.0229945,112.745307 95.8670633,116.512937 L95.8670633,144.939428" id="Stroke-11" stroke="#315D79"></path>
                            <path d="M26.2535771,95.6270895 C26.1796367,109.869991 31.5781963,123.846448 42.449256,134.713173 C44.3771826,136.640331 46.4109991,138.39503 48.5333615,139.97727" id="Stroke-13" stroke="#F1F1F1"></path>
                            <path d="M32.0321537,167.477047 L106.278323,167.477047" id="Stroke-15" stroke="#F1F1F1"></path>
                            <path d="M106.276863,80.4873115 L72.5016335,44.900589" id="Stroke-17" stroke="#FFFFFF"></path>
                            <path d="M63.3316587,74.6269083 C70.8197183,93.0763427 88.3244156,85.6578798 88.3244156,85.6578798 L89.2372596,90.2202801 C92.6759431,93.6420803 100.515448,95.1193855 103.842764,91.5890002 L111.620195,83.3392679 C113.064315,81.8072139 113.058838,79.4137787 111.606503,77.888112 L75.2296679,39.6624972 L78.8728284,26.8020032 C65.6557596,27.4115399 47.9429339,36.4049434 38.6291862,45.7149775 C36.9258193,47.4176653 35.3374706,49.190614 33.8623147,51.0246989 L33.3903743,51.6552227 L38.2768284,56.7587237 C36.7377734,58.7944667 35.3383835,60.9397073 34.0750073,63.1716336 L28.4025945,58.9997747 L24.4061633,67.0843481 L30.7969844,69.9531854 C29.9544294,72.0336399 29.2296312,74.1724932 28.6289798,76.3642703 L21.832856,74.6770947 L20.0893239,83.5372761 L27.0698422,84.1157885 C26.7704294,86.3933387 26.5988147,88.7110381 26.5723422,91.0643241 L19.5562229,91.7413844 L19.5580486,91.7413844 C19.4704156,108.512768 25.8274615,124.970258 38.6291862,137.766879 C40.8985165,140.035304 43.2938193,142.101159 45.7931862,143.965356" id="Stroke-19" stroke="#315D79"></path>
                            <polyline id="Stroke-21" stroke="#315D79" stroke-dasharray="5.873" points="186.923165 114.097328 186.923165 0.949800498 146.504256 0.949800498"></polyline>
                            <path d="M50.6602881,0.562178967 L0.000182568807,0.562178967" id="Stroke-23" stroke="#315D79" stroke-dasharray="5.873"></path>
                        </g>
                    </g>
                </g>
            </g>
        </g>
    </g>
</svg>