<?xml version="1.0" encoding="UTF-8" standalone="no"?>
<svg width="189px" height="240px" viewBox="0 0 189 240" version="1.1" xmlns="http://www.w3.org/2000/svg" xmlns:xlink="http://www.w3.org/1999/xlink">
    <!-- Generator: Sketch 46.2 (44496) - http://www.bohemiancoding.com/sketch -->
    <title>icone 01</title>
    <desc>Created with Sketch.</desc>
    <defs>
        <polygon id="path-1" points="0.000350364964 0.185693431 188.559766 0.185693431 188.559766 239.123737 0.000350364964 239.123737"></polygon>
    </defs>
    <g id="landing-page" stroke="none" stroke-width="1" fill="none" fill-rule="evenodd">
        <g id="768-px/landing" transform="translate(-439.000000, -3621.000000)">
            <g id="MÉTODO" transform="translate(-342.000000, 2924.000000)">
                <g id="01" transform="translate(417.000000, 697.000000)">
                    <g id="icone-01" transform="translate(364.000000, 0.000000)">
                        <g id="Group-3" transform="translate(0.000000, 0.690219)">
                            <mask id="mask-2" fill="white">
                                <use xlink:href="#path-1"></use>
                            </mask>
                            <g id="Clip-2"></g>
                            <path d="M94.2800584,0.185343066 C42.2114453,0.185343066 0.000350364964,39.0898686 0.000350364964,87.0723504 C0.000350364964,157.667387 94.2800584,239.123737 94.2800584,239.123737 C94.2800584,239.123737 188.559766,157.667387 188.559766,87.0723504 C188.559766,39.0898686 146.348672,0.185343066 94.2800584,0.185343066" id="Fill-1" fill="#FCE2B1" mask="url(#mask-2)"></path>
                        </g>
                        <path d="M39.2842336,121.313255 C39.2842336,123.661577 41.1875912,125.564934 43.5359124,125.564934 L49.4010219,125.564934 L49.4010219,140.740117 L69.0486131,125.564934 L132.824672,125.564934 C135.172117,125.564934 137.075474,123.661577 137.075474,121.313255 L137.075474,66.5538394 C137.075474,63.1824526 135.392847,61.4954453 132.824672,61.4954453 L43.5359124,61.4954453 C40.9677372,61.4954453 39.2842336,63.1824526 39.2842336,66.5538394 L39.2842336,121.313255 Z" id="Fill-6" fill="#FFFFFF"></path>
                        <path d="M39.2842336,121.313255 C39.2842336,123.661577 41.1875912,125.564934 43.5359124,125.564934 L49.4010219,125.564934 L49.4010219,140.740117 L69.0486131,125.564934 L132.824672,125.564934 C135.172117,125.564934 137.075474,123.661577 137.075474,121.313255 L137.075474,66.5538394 C137.075474,63.1824526 135.392847,61.4954453 132.824672,61.4954453 L43.5359124,61.4954453 C40.9677372,61.4954453 39.2842336,63.1824526 39.2842336,66.5538394 L39.2842336,121.313255 Z" id="Stroke-8" stroke="#315D79" stroke-width="3" stroke-linejoin="round"></path>
                        <path d="M165.78254,140.907504 C165.78254,139.16619 164.371445,137.755095 162.630131,137.755095 L158.28035,137.755095 L158.28035,126.502248 L143.712175,137.755095 L96.4216642,137.755095 C94.6812263,137.755095 93.2692555,139.16619 93.2692555,140.907504 L93.2692555,181.512175 C93.2692555,184.012029 94.5174307,185.262832 96.4216642,185.262832 L162.630131,185.262832 C164.534365,185.262832 165.78254,184.012029 165.78254,181.512175 L165.78254,140.907504 Z" id="Stroke-10" stroke="#315D79" stroke-width="3" stroke-linejoin="round"></path>
                        <path d="M143.189431,165.648526 C141.596146,165.648526 140.300672,164.353051 140.300672,162.759766 C140.300672,161.165606 141.596146,159.86838 143.189431,159.86838 C144.783591,159.86838 146.080818,161.165606 146.080818,162.759766 C146.080818,164.353051 144.783591,165.648526 143.189431,165.648526 Z" id="Stroke-12" stroke="#315D79" stroke-width="2" stroke-linejoin="round"></path>
                        <path d="M117.969285,165.648526 C116.375124,165.648526 115.077898,164.353051 115.077898,162.759766 C115.077898,161.165606 116.375124,159.86838 117.969285,159.86838 C119.561693,159.86838 120.858044,161.165606 120.858044,162.759766 C120.858044,164.353051 119.561693,165.648526 117.969285,165.648526 Z" id="Stroke-14" stroke="#315D79" stroke-width="2" stroke-linejoin="round"></path>
                        <path d="M130.579358,165.648526 C128.986949,165.648526 127.690599,164.353051 127.690599,162.759766 C127.690599,161.165606 128.986949,159.86838 130.579358,159.86838 C132.173518,159.86838 133.470745,161.165606 133.470745,162.759766 C133.470745,164.353051 132.173518,165.648526 130.579358,165.648526 Z" id="Stroke-16" stroke="#315D79" stroke-width="2" stroke-linejoin="round"></path>
                        <path d="M57.2807299,84.5399124 L104.657956,84.5399124" id="Stroke-18" stroke="#315D79" stroke-width="2"></path>
                        <path d="M57.2807299,92.4003504 L120.288613,92.4003504" id="Stroke-20" stroke="#315D79" stroke-width="2"></path>
                        <path d="M58.7656642,101.331241 L96.2004088,101.331241" id="Stroke-22" stroke="#315D79" stroke-width="2"></path>
                        <path d="M100.580234,101.525693 L107.25819,101.525693" id="Stroke-24" stroke="#315D79" stroke-width="2"></path>
                        <path d="M120.228,194.625197 L172.703036,194.625197 C175.43238,194.625197 177.221869,192.758628 177.221869,189.029869 L177.221869,167.047095" id="Stroke-26" stroke="#315D79" stroke-width="3" stroke-linejoin="round" stroke-dasharray="5.873"></path>
                        <path d="M63.3539562,50.5670365 L34.5031533,50.5670365 C31.5837372,50.5670365 29.6698686,52.5378394 29.6698686,56.4759416 L29.6698686,120.437693" id="Stroke-28" stroke="#315D79" stroke-width="3" stroke-linejoin="round" stroke-dasharray="5.873"></path>
                    </g>
                </g>
            </g>
        </g>
    </g>
</svg>