<?xml version="1.0" encoding="UTF-8" standalone="no"?>
<svg width="116px" height="147px" viewBox="0 0 116 147" version="1.1" xmlns="http://www.w3.org/2000/svg" xmlns:xlink="http://www.w3.org/1999/xlink">
    <!-- Generator: Sketch 46.2 (44496) - http://www.bohemiancoding.com/sketch -->
    <title>icone 01</title>
    <desc>Created with Sketch.</desc>
    <defs>
        <polygon id="path-1" points="0.000214804291 0.113138609 115.603588 0.113138609 115.603588 145.69243 0.000214804291 145.69243"></polygon>
    </defs>
    <g id="landing-page" stroke="none" stroke-width="1" fill="none" fill-rule="evenodd">
        <g id="360-320px/landing" transform="translate(-194.000000, -2770.000000)">
            <g id="MÉTODO" transform="translate(-171.000000, 2344.000000)">
                <g id="01" transform="translate(203.000000, 426.000000)">
                    <g id="icone-01" transform="translate(162.000000, 0.000000)">
                        <g id="Group-3" transform="translate(0.000000, 0.420534)">
                            <mask id="mask-2" fill="white">
                                <use xlink:href="#path-1"></use>
                            </mask>
                            <g id="Clip-2"></g>
                            <path d="M57.8019016,0.11292514 C25.8792988,0.11292514 0.000214804291,23.8165311 0.000214804291,53.0511208 C0.000214804291,96.0630046 57.8019016,145.69243 57.8019016,145.69243 C57.8019016,145.69243 115.603588,96.0630046 115.603588,53.0511208 C115.603588,23.8165311 89.7245043,0.11292514 57.8019016,0.11292514" id="Fill-1" fill="#FCE2B1" mask="url(#mask-2)"></path>
                        </g>
                        <path d="M24.0846627,73.9132934 C24.0846627,75.3440698 25.251587,76.5037406 26.6913127,76.5037406 L30.2871366,76.5037406 L30.2871366,85.7496198 L42.3328242,76.5037406 L81.4331124,76.5037406 C82.8723011,76.5037406 84.0392254,75.3440698 84.0392254,73.9132934 L84.0392254,40.5496781 C84.0392254,38.4955719 83.0076278,37.4677183 81.4331124,37.4677183 L26.6913127,37.4677183 C25.1167973,37.4677183 24.0846627,38.4955719 24.0846627,40.5496781 L24.0846627,73.9132934 Z" id="Fill-6" fill="#FFFFFF"></path>
                        <path d="M24.0846627,73.9132934 C24.0846627,75.3440698 25.251587,76.5037406 26.6913127,76.5037406 L30.2871366,76.5037406 L30.2871366,85.7496198 L42.3328242,76.5037406 L81.4331124,76.5037406 C82.8723011,76.5037406 84.0392254,75.3440698 84.0392254,73.9132934 L84.0392254,40.5496781 C84.0392254,38.4955719 83.0076278,37.4677183 81.4331124,37.4677183 L26.6913127,37.4677183 C25.1167973,37.4677183 24.0846627,38.4955719 24.0846627,40.5496781 L24.0846627,73.9132934 Z" id="Stroke-8" stroke="#315D79" stroke-width="3" stroke-linejoin="round"></path>
                        <path d="M101.639161,85.8516047 C101.639161,84.7906634 100.774037,83.9309167 99.7064597,83.9309167 L97.0396645,83.9309167 L97.0396645,77.0748237 L88.108102,83.9309167 L59.1148928,83.9309167 C58.0478525,83.9309167 57.1821912,84.7906634 57.1821912,85.8516047 L57.1821912,110.591069 C57.1821912,112.114171 57.9474315,112.876256 59.1148928,112.876256 L99.7064597,112.876256 C100.873921,112.876256 101.639161,112.114171 101.639161,110.591069 L101.639161,85.8516047 Z" id="Stroke-10" stroke="#315D79" stroke-width="3" stroke-linejoin="round"></path>
                        <path d="M87.787614,100.925723 C86.8107915,100.925723 86.0165526,100.136421 86.0165526,99.1656708 C86.0165526,98.1943866 86.8107915,97.4040173 87.787614,97.4040173 C88.7649736,97.4040173 89.5602864,98.1943866 89.5602864,99.1656708 C89.5602864,100.136421 88.7649736,100.925723 87.787614,100.925723 Z" id="Stroke-12" stroke="#315D79" stroke-width="2" stroke-linejoin="round"></path>
                        <path d="M72.3254641,100.925723 C71.3481046,100.925723 70.5527917,100.136421 70.5527917,99.1656708 C70.5527917,98.1943866 71.3481046,97.4040173 72.3254641,97.4040173 C73.3017496,97.4040173 74.0965255,98.1943866 74.0965255,99.1656708 C74.0965255,100.136421 73.3017496,100.925723 72.3254641,100.925723 Z" id="Stroke-14" stroke="#315D79" stroke-width="2" stroke-linejoin="round"></path>
                        <path d="M80.0565391,100.925723 C79.0802536,100.925723 78.2854777,100.136421 78.2854777,99.1656708 C78.2854777,98.1943866 79.0802536,97.4040173 80.0565391,97.4040173 C81.0338986,97.4040173 81.8292115,98.1943866 81.8292115,99.1656708 C81.8292115,100.136421 81.0338986,100.925723 80.0565391,100.925723 Z" id="Stroke-16" stroke="#315D79" stroke-width="2" stroke-linejoin="round"></path>
                        <path d="M35.1180851,51.5081664 L64.1644584,51.5081664" id="Stroke-18" stroke="#315D79" stroke-width="2"></path>
                        <path d="M35.1180851,56.297345 L73.7474148,56.297345" id="Stroke-20" stroke="#315D79" stroke-width="2"></path>
                        <path d="M36.0284794,61.7387251 L58.9792439,61.7387251" id="Stroke-22" stroke="#315D79" stroke-width="2"></path>
                        <path d="M61.6644586,61.8572005 L65.7586284,61.8572005" id="Stroke-24" stroke="#315D79" stroke-width="2"></path>
                        <path d="M73.7102537,118.580523 L105.882029,118.580523 C107.555355,118.580523 108.652468,117.443267 108.652468,115.171422 L108.652468,101.777839" id="Stroke-26" stroke="#315D79" stroke-width="3" stroke-linejoin="round" stroke-dasharray="5.873"></path>
                        <path d="M38.8415027,30.8092977 L21.1534433,30.8092977 C19.3635865,30.8092977 18.1902181,32.0100612 18.1902181,34.4094536 L18.1902181,73.3798341" id="Stroke-28" stroke="#315D79" stroke-width="3" stroke-linejoin="round" stroke-dasharray="5.873"></path>
                    </g>
                </g>
            </g>
        </g>
    </g>
</svg>