<?xml version="1.0" encoding="UTF-8" standalone="no"?>
<svg width="216px" height="273px" viewBox="0 0 216 273" version="1.1" xmlns="http://www.w3.org/2000/svg" xmlns:xlink="http://www.w3.org/1999/xlink">
    <!-- Generator: Sketch 46.2 (44496) - http://www.bohemiancoding.com/sketch -->
    <title>icone 01</title>
    <desc>Created with Sketch.</desc>
    <defs>
        <polygon id="path-1" points="0.0004 0.212 215.2724 0.212 215.2724 272.9996 0.0004 272.9996"></polygon>
    </defs>
    <g id="landing-page" stroke="none" stroke-width="1" fill="none" fill-rule="evenodd">
        <g id="1440-1024-px/landing-" transform="translate(-730.000000, -3731.000000)">
            <g id="MÉTODO" transform="translate(-195.000000, 2924.000000)">
                <g id="01" transform="translate(517.000000, 806.000000)">
                    <g id="icone-01" transform="translate(408.000000, 0.000000)">
                        <g id="Group-3" transform="translate(0.000000, 0.788000)">
                            <mask id="mask-2" fill="white">
                                <use xlink:href="#path-1"></use>
                            </mask>
                            <g id="Clip-2"></g>
                            <path d="M107.6364,0.2116 C48.1914,0.2116 0.0004,44.6276 0.0004,99.4076 C0.0004,180.0036 107.6364,272.9996 107.6364,272.9996 C107.6364,272.9996 215.2724,180.0036 215.2724,99.4076 C215.2724,44.6276 167.0814,0.2116 107.6364,0.2116" id="Fill-1" fill="#FCE2B1" mask="url(#mask-2)"></path>
                        </g>
                        <path d="M44.8495,138.4993 C44.8495,141.1803 47.0225,143.3533 49.7035,143.3533 L56.3995,143.3533 L56.3995,160.6783 L78.8305,143.3533 L151.6415,143.3533 C154.3215,143.3533 156.4945,141.1803 156.4945,138.4993 L156.4945,75.9823 C156.4945,72.1333 154.5735,70.2073 151.6415,70.2073 L49.7035,70.2073 C46.7715,70.2073 44.8495,72.1333 44.8495,75.9823 L44.8495,138.4993 Z" id="Fill-6" fill="#FFFFFF"></path>
                        <path d="M44.8495,138.4993 C44.8495,141.1803 47.0225,143.3533 49.7035,143.3533 L56.3995,143.3533 L56.3995,160.6783 L78.8305,143.3533 L151.6415,143.3533 C154.3215,143.3533 156.4945,141.1803 156.4945,138.4993 L156.4945,75.9823 C156.4945,72.1333 154.5735,70.2073 151.6415,70.2073 L49.7035,70.2073 C46.7715,70.2073 44.8495,72.1333 44.8495,75.9823 L44.8495,138.4993 Z" id="Stroke-8" stroke="#315D79" stroke-width="3" stroke-linejoin="round"></path>
                        <path d="M189.2684,160.8694 C189.2684,158.8814 187.6574,157.2704 185.6694,157.2704 L180.7034,157.2704 L180.7034,144.4234 L164.0714,157.2704 L110.0814,157.2704 C108.0944,157.2704 106.4824,158.8814 106.4824,160.8694 L106.4824,207.2264 C106.4824,210.0804 107.9074,211.5084 110.0814,211.5084 L185.6694,211.5084 C187.8434,211.5084 189.2684,210.0804 189.2684,207.2264 L189.2684,160.8694 Z" id="Stroke-10" stroke="#315D79" stroke-width="3" stroke-linejoin="round"></path>
                        <path d="M163.4746,189.1154 C161.6556,189.1154 160.1766,187.6364 160.1766,185.8174 C160.1766,183.9974 161.6556,182.5164 163.4746,182.5164 C165.2946,182.5164 166.7756,183.9974 166.7756,185.8174 C166.7756,187.6364 165.2946,189.1154 163.4746,189.1154 Z" id="Stroke-12" stroke="#315D79" stroke-width="2" stroke-linejoin="round"></path>
                        <path d="M134.6816,189.1154 C132.8616,189.1154 131.3806,187.6364 131.3806,185.8174 C131.3806,183.9974 132.8616,182.5164 134.6816,182.5164 C136.4996,182.5164 137.9796,183.9974 137.9796,185.8174 C137.9796,187.6364 136.4996,189.1154 134.6816,189.1154 Z" id="Stroke-14" stroke="#315D79" stroke-width="2" stroke-linejoin="round"></path>
                        <path d="M149.0781,189.1154 C147.2601,189.1154 145.7801,187.6364 145.7801,185.8174 C145.7801,183.9974 147.2601,182.5164 149.0781,182.5164 C150.8981,182.5164 152.3791,183.9974 152.3791,185.8174 C152.3791,187.6364 150.8981,189.1154 149.0781,189.1154 Z" id="Stroke-16" stroke="#315D79" stroke-width="2" stroke-linejoin="round"></path>
                        <path d="M65.3955,96.5164 L119.4845,96.5164" id="Stroke-18" stroke="#315D79" stroke-width="2"></path>
                        <path d="M65.3955,105.4904 L137.3295,105.4904" id="Stroke-20" stroke="#315D79" stroke-width="2"></path>
                        <path d="M67.0908,115.6865 L109.8288,115.6865" id="Stroke-22" stroke="#315D79" stroke-width="2"></path>
                        <path d="M114.8291,115.9085 L122.4531,115.9085" id="Stroke-24" stroke="#315D79" stroke-width="2"></path>
                        <path d="M137.2603,222.1971 L197.1693,222.1971 C200.2853,222.1971 202.3283,220.0661 202.3283,215.8091 L202.3283,190.7121" id="Stroke-26" stroke="#315D79" stroke-width="3" stroke-linejoin="round" stroke-dasharray="5.873"></path>
                        <path d="M72.3291,57.7307 L39.3911,57.7307 C36.0581,57.7307 33.8731,59.9807 33.8731,64.4767 L33.8731,137.4997" id="Stroke-28" stroke="#315D79" stroke-width="3" stroke-linejoin="round" stroke-dasharray="5.873"></path>
                    </g>
                </g>
            </g>
        </g>
    </g>
</svg>